G04 #@! TF.GenerationSoftware,KiCad,Pcbnew,(6.0.6-0)*
G04 #@! TF.CreationDate,2022-11-29T15:01:29-05:00*
G04 #@! TF.ProjectId,Philips CD-i 450 Power Adapter,5068696c-6970-4732-9043-442d69203435,1*
G04 #@! TF.SameCoordinates,Original*
G04 #@! TF.FileFunction,Copper,L2,Bot*
G04 #@! TF.FilePolarity,Positive*
%FSLAX46Y46*%
G04 Gerber Fmt 4.6, Leading zero omitted, Abs format (unit mm)*
G04 Created by KiCad (PCBNEW (6.0.6-0)) date 2022-11-29 15:01:29*
%MOMM*%
%LPD*%
G01*
G04 APERTURE LIST*
G04 #@! TA.AperFunction,ComponentPad*
%ADD10R,1.200000X1.200000*%
G04 #@! TD*
G04 #@! TA.AperFunction,ComponentPad*
%ADD11C,1.200000*%
G04 #@! TD*
G04 #@! TA.AperFunction,ComponentPad*
%ADD12R,1.800000X1.800000*%
G04 #@! TD*
G04 #@! TA.AperFunction,ComponentPad*
%ADD13C,1.800000*%
G04 #@! TD*
G04 #@! TA.AperFunction,ComponentPad*
%ADD14R,1.524000X1.524000*%
G04 #@! TD*
G04 #@! TA.AperFunction,ComponentPad*
%ADD15C,1.524000*%
G04 #@! TD*
G04 #@! TA.AperFunction,ComponentPad*
%ADD16O,5.000000X2.500000*%
G04 #@! TD*
G04 #@! TA.AperFunction,ComponentPad*
%ADD17O,4.500000X2.250000*%
G04 #@! TD*
G04 #@! TA.AperFunction,SMDPad,CuDef*
%ADD18R,1.200000X0.900000*%
G04 #@! TD*
G04 #@! TA.AperFunction,ViaPad*
%ADD19C,0.700000*%
G04 #@! TD*
G04 #@! TA.AperFunction,Conductor*
%ADD20C,0.508000*%
G04 #@! TD*
G04 #@! TA.AperFunction,Conductor*
%ADD21C,0.500000*%
G04 #@! TD*
G04 #@! TA.AperFunction,Conductor*
%ADD22C,1.250000*%
G04 #@! TD*
G04 APERTURE END LIST*
D10*
X130580245Y-108865000D03*
D11*
X130580245Y-116465000D03*
X138205245Y-108865000D03*
X138205245Y-116465000D03*
X143305245Y-108865000D03*
X143305245Y-116465000D03*
X148355245Y-108865000D03*
X148380245Y-116465000D03*
D12*
X123230000Y-99185000D03*
D13*
X123230000Y-101725000D03*
D14*
X135070000Y-100535000D03*
D15*
X136340000Y-97995000D03*
X137610000Y-100535000D03*
X138880000Y-97995000D03*
X140150000Y-100535000D03*
X141420000Y-97995000D03*
X142690000Y-100535000D03*
X143960000Y-97995000D03*
D16*
X154575000Y-106677500D03*
D17*
X154575000Y-112677500D03*
D16*
X124395000Y-106667500D03*
D17*
X124395000Y-112667500D03*
D12*
X155740000Y-93095000D03*
D13*
X155740000Y-95635000D03*
D12*
X123230000Y-93095000D03*
D13*
X123230000Y-95635000D03*
D12*
X155730000Y-99175000D03*
D13*
X155730000Y-101715000D03*
D18*
X133020000Y-110990000D03*
X133020000Y-114290000D03*
D19*
X150800000Y-107170000D03*
X134660000Y-115650000D03*
D20*
X143305245Y-116465000D02*
X145304214Y-114466031D01*
X146475787Y-106864213D02*
X153584214Y-99755786D01*
X145890000Y-113051818D02*
X145890000Y-108278427D01*
X154998427Y-99170000D02*
X155730000Y-99170000D01*
X154998427Y-99170020D02*
G75*
G03*
X153584215Y-99755787I-27J-1999980D01*
G01*
X145890020Y-108278427D02*
G75*
G02*
X146475788Y-106864214I1999980J27D01*
G01*
X145304205Y-114466022D02*
G75*
G03*
X145890000Y-113051818I-1414205J1414222D01*
G01*
X130760787Y-96220787D02*
X135070000Y-100530000D01*
X123230000Y-95635000D02*
X129346573Y-95635000D01*
X129346573Y-95635020D02*
G75*
G02*
X130760786Y-96220788I27J-1999980D01*
G01*
D21*
X148400000Y-114208427D02*
X148400000Y-116450000D01*
X150800000Y-107170000D02*
X150800000Y-110151573D01*
X150214213Y-111565787D02*
X148985786Y-112794214D01*
X150214227Y-111565801D02*
G75*
G03*
X150800000Y-110151573I-1414227J1414201D01*
G01*
X148985772Y-112794200D02*
G75*
G03*
X148400000Y-114208427I1414228J-1414200D01*
G01*
D22*
X133825787Y-104475787D02*
X138210000Y-108860000D01*
X128000927Y-103890000D02*
X132411573Y-103890000D01*
X124395000Y-106667500D02*
X126586714Y-104475786D01*
D20*
X136665787Y-110404213D02*
X138210000Y-108860000D01*
X132860000Y-111100000D02*
X130600000Y-108840000D01*
X133020000Y-110990000D02*
X135251573Y-110990000D01*
X135251573Y-110989980D02*
G75*
G03*
X136665786Y-110404212I27J1999980D01*
G01*
D22*
X133825801Y-104475773D02*
G75*
G03*
X132411573Y-103890000I-1414201J-1414227D01*
G01*
X126586700Y-104475772D02*
G75*
G02*
X128000927Y-103890000I1414200J-1414228D01*
G01*
D20*
X136591573Y-114290000D02*
X133020000Y-114290000D01*
X146070000Y-100933427D02*
X146070000Y-101921573D01*
X140174213Y-111535787D02*
X138005786Y-113704214D01*
X133020000Y-114290000D02*
X132750000Y-114290000D01*
X132750000Y-114290000D02*
X130580000Y-116460000D01*
X140760000Y-108888427D02*
X140760000Y-110121573D01*
X143960000Y-97995000D02*
X145484214Y-99519214D01*
X145484213Y-103335787D02*
X141345786Y-107474214D01*
X140174227Y-111535801D02*
G75*
G03*
X140760000Y-110121573I-1414227J1414201D01*
G01*
X140760020Y-108888427D02*
G75*
G02*
X141345787Y-107474215I1999980J27D01*
G01*
X138005800Y-113704228D02*
G75*
G02*
X136591573Y-114290000I-1414200J1414228D01*
G01*
X145484227Y-103335801D02*
G75*
G03*
X146070000Y-101921573I-1414227J1414201D01*
G01*
X145484228Y-99519200D02*
G75*
G02*
X146070000Y-100933427I-1414228J-1414200D01*
G01*
G04 #@! TA.AperFunction,Conductor*
G36*
X159023621Y-86958502D02*
G01*
X159070114Y-87012158D01*
X159081500Y-87064500D01*
X159081500Y-107588872D01*
X159061498Y-107656993D01*
X159007842Y-107703486D01*
X158991075Y-107709746D01*
X158895381Y-107737910D01*
X158889923Y-107740763D01*
X158889919Y-107740765D01*
X158820106Y-107777263D01*
X158720110Y-107829540D01*
X158565975Y-107953468D01*
X158562011Y-107958192D01*
X158556833Y-107964363D01*
X158438846Y-108104974D01*
X158435879Y-108110372D01*
X158435875Y-108110377D01*
X158361397Y-108245854D01*
X158343567Y-108278287D01*
X158341706Y-108284154D01*
X158341705Y-108284156D01*
X158290842Y-108444496D01*
X158283765Y-108466806D01*
X158266500Y-108620727D01*
X158266500Y-110727269D01*
X158266800Y-110730325D01*
X158266800Y-110730332D01*
X158272537Y-110788840D01*
X158280920Y-110874333D01*
X158338084Y-111063669D01*
X158430934Y-111238296D01*
X158501291Y-111324562D01*
X158552040Y-111386787D01*
X158552043Y-111386790D01*
X158555935Y-111391562D01*
X158560682Y-111395489D01*
X158560684Y-111395491D01*
X158703575Y-111513701D01*
X158703579Y-111513703D01*
X158708325Y-111517630D01*
X158882299Y-111611698D01*
X158948586Y-111632217D01*
X158992759Y-111645891D01*
X159051919Y-111685142D01*
X159080466Y-111750147D01*
X159081500Y-111766256D01*
X159081500Y-117015500D01*
X159061498Y-117083621D01*
X159007842Y-117130114D01*
X158955500Y-117141500D01*
X149486946Y-117141500D01*
X149418825Y-117121498D01*
X149372332Y-117067842D01*
X149362228Y-116997568D01*
X149377011Y-116953937D01*
X149397249Y-116917799D01*
X149399105Y-116912332D01*
X149399107Y-116912327D01*
X149460879Y-116730352D01*
X149460880Y-116730347D01*
X149462735Y-116724883D01*
X149491968Y-116523263D01*
X149493494Y-116465000D01*
X149474853Y-116262126D01*
X149419552Y-116066047D01*
X149408925Y-116044496D01*
X149332001Y-115888510D01*
X149329446Y-115883329D01*
X149311041Y-115858681D01*
X149211003Y-115724715D01*
X149211003Y-115724714D01*
X149207550Y-115720091D01*
X149203313Y-115716175D01*
X149203310Y-115716171D01*
X149198973Y-115712162D01*
X149162527Y-115651235D01*
X149158500Y-115619636D01*
X149158500Y-114264409D01*
X149159493Y-114248618D01*
X149162342Y-114226063D01*
X149163225Y-114219074D01*
X149161225Y-114198680D01*
X149161011Y-114176500D01*
X149162536Y-114157127D01*
X149173004Y-114024085D01*
X149176097Y-114004558D01*
X149216944Y-113834413D01*
X149223054Y-113815610D01*
X149290016Y-113653943D01*
X149298992Y-113636325D01*
X149390415Y-113487133D01*
X149402036Y-113471137D01*
X149494387Y-113363006D01*
X149507328Y-113350660D01*
X149507322Y-113350654D01*
X149512372Y-113345743D01*
X149517937Y-113341426D01*
X149544758Y-113308773D01*
X149553028Y-113299653D01*
X150175181Y-112677500D01*
X151811449Y-112677500D01*
X151831622Y-112933826D01*
X151832776Y-112938633D01*
X151832777Y-112938639D01*
X151864973Y-113072742D01*
X151891645Y-113183840D01*
X151893538Y-113188411D01*
X151893539Y-113188413D01*
X151985208Y-113409721D01*
X151990040Y-113421387D01*
X152124384Y-113640616D01*
X152291369Y-113836131D01*
X152486884Y-114003116D01*
X152706113Y-114137460D01*
X152710683Y-114139353D01*
X152710687Y-114139355D01*
X152939087Y-114233961D01*
X152943660Y-114235855D01*
X152996822Y-114248618D01*
X153188861Y-114294723D01*
X153188867Y-114294724D01*
X153193674Y-114295878D01*
X153278413Y-114302547D01*
X153383363Y-114310807D01*
X153383372Y-114310807D01*
X153385820Y-114311000D01*
X155764180Y-114311000D01*
X155766628Y-114310807D01*
X155766637Y-114310807D01*
X155871587Y-114302547D01*
X155956326Y-114295878D01*
X155961133Y-114294724D01*
X155961139Y-114294723D01*
X156153178Y-114248618D01*
X156206340Y-114235855D01*
X156210913Y-114233961D01*
X156439313Y-114139355D01*
X156439317Y-114139353D01*
X156443887Y-114137460D01*
X156663116Y-114003116D01*
X156858631Y-113836131D01*
X157025616Y-113640616D01*
X157159960Y-113421387D01*
X157164793Y-113409721D01*
X157256461Y-113188413D01*
X157256462Y-113188411D01*
X157258355Y-113183840D01*
X157285027Y-113072742D01*
X157317223Y-112938639D01*
X157317224Y-112938633D01*
X157318378Y-112933826D01*
X157338551Y-112677500D01*
X157318378Y-112421174D01*
X157316135Y-112411829D01*
X157274220Y-112237241D01*
X157258355Y-112171160D01*
X157237320Y-112120376D01*
X157161855Y-111938187D01*
X157161853Y-111938183D01*
X157159960Y-111933613D01*
X157025616Y-111714384D01*
X156858631Y-111518869D01*
X156663116Y-111351884D01*
X156443887Y-111217540D01*
X156439317Y-111215647D01*
X156439313Y-111215645D01*
X156210913Y-111121039D01*
X156210911Y-111121038D01*
X156206340Y-111119145D01*
X156119498Y-111098296D01*
X155961139Y-111060277D01*
X155961133Y-111060276D01*
X155956326Y-111059122D01*
X155850228Y-111050772D01*
X155766637Y-111044193D01*
X155766628Y-111044193D01*
X155764180Y-111044000D01*
X153385820Y-111044000D01*
X153383372Y-111044193D01*
X153383363Y-111044193D01*
X153299772Y-111050772D01*
X153193674Y-111059122D01*
X153188867Y-111060276D01*
X153188861Y-111060277D01*
X153030502Y-111098296D01*
X152943660Y-111119145D01*
X152939089Y-111121038D01*
X152939087Y-111121039D01*
X152710687Y-111215645D01*
X152710683Y-111215647D01*
X152706113Y-111217540D01*
X152486884Y-111351884D01*
X152291369Y-111518869D01*
X152124384Y-111714384D01*
X151990040Y-111933613D01*
X151988147Y-111938183D01*
X151988145Y-111938187D01*
X151912680Y-112120376D01*
X151891645Y-112171160D01*
X151875780Y-112237241D01*
X151833866Y-112411829D01*
X151831622Y-112421174D01*
X151811449Y-112677500D01*
X150175181Y-112677500D01*
X150706605Y-112146076D01*
X150719870Y-112134544D01*
X150735508Y-112122760D01*
X150735512Y-112122756D01*
X150738671Y-112120376D01*
X150753952Y-112105516D01*
X150765901Y-112090548D01*
X150765962Y-112090472D01*
X150771072Y-112084467D01*
X150932858Y-111905959D01*
X150934938Y-111903664D01*
X150936777Y-111901184D01*
X150936783Y-111901177D01*
X151094545Y-111688454D01*
X151096391Y-111685965D01*
X151111240Y-111661191D01*
X151234131Y-111456155D01*
X151234133Y-111456150D01*
X151235728Y-111453490D01*
X151351607Y-111208476D01*
X151442913Y-110953285D01*
X151461721Y-110878194D01*
X151508015Y-110693371D01*
X151508016Y-110693368D01*
X151508766Y-110690372D01*
X151512654Y-110664164D01*
X151548078Y-110425333D01*
X151548078Y-110425330D01*
X151548532Y-110422271D01*
X151554278Y-110305286D01*
X151556822Y-110253477D01*
X151557414Y-110247572D01*
X151557808Y-110245963D01*
X151558500Y-110234809D01*
X151558500Y-110222390D01*
X151558652Y-110216208D01*
X151559307Y-110202873D01*
X151560381Y-110191522D01*
X151562451Y-110176792D01*
X151562451Y-110176787D01*
X151563001Y-110172876D01*
X151563299Y-110151563D01*
X151559285Y-110115780D01*
X151558500Y-110101734D01*
X151558500Y-107611588D01*
X151578502Y-107543467D01*
X151632158Y-107496974D01*
X151702432Y-107486870D01*
X151767012Y-107516364D01*
X151789872Y-107542503D01*
X151923808Y-107746791D01*
X151929491Y-107754196D01*
X152097249Y-107942154D01*
X152103965Y-107948639D01*
X152297666Y-108109739D01*
X152305258Y-108115154D01*
X152520646Y-108245854D01*
X152528963Y-108250092D01*
X152761299Y-108347519D01*
X152770149Y-108350480D01*
X153014331Y-108412494D01*
X153023528Y-108414116D01*
X153232753Y-108435184D01*
X153239045Y-108435500D01*
X154302885Y-108435500D01*
X154318124Y-108431025D01*
X154319329Y-108429635D01*
X154321000Y-108421952D01*
X154321000Y-108417385D01*
X154829000Y-108417385D01*
X154833475Y-108432624D01*
X154834865Y-108433829D01*
X154842548Y-108435500D01*
X155888998Y-108435500D01*
X155893673Y-108435327D01*
X156080926Y-108421412D01*
X156090132Y-108420036D01*
X156335874Y-108364429D01*
X156344785Y-108361705D01*
X156579608Y-108270388D01*
X156588017Y-108266377D01*
X156806760Y-108141354D01*
X156814486Y-108136143D01*
X157012350Y-107980159D01*
X157019218Y-107973866D01*
X157191848Y-107790356D01*
X157197722Y-107783102D01*
X157341327Y-107576097D01*
X157346060Y-107568062D01*
X157457495Y-107342093D01*
X157460983Y-107333460D01*
X157537793Y-107093506D01*
X157539973Y-107084424D01*
X157561967Y-106949380D01*
X157560271Y-106935786D01*
X157546161Y-106931500D01*
X154847115Y-106931500D01*
X154831876Y-106935975D01*
X154830671Y-106937365D01*
X154829000Y-106945048D01*
X154829000Y-108417385D01*
X154321000Y-108417385D01*
X154321000Y-106405385D01*
X154829000Y-106405385D01*
X154833475Y-106420624D01*
X154834865Y-106421829D01*
X154842548Y-106423500D01*
X157546606Y-106423500D01*
X157560290Y-106419482D01*
X157562311Y-106405790D01*
X157550036Y-106315596D01*
X157548098Y-106306478D01*
X157477596Y-106064598D01*
X157474333Y-106055867D01*
X157368849Y-105827058D01*
X157364330Y-105818906D01*
X157226192Y-105608209D01*
X157220509Y-105600804D01*
X157052751Y-105412846D01*
X157046035Y-105406361D01*
X156852334Y-105245261D01*
X156844742Y-105239846D01*
X156629354Y-105109146D01*
X156621037Y-105104908D01*
X156388701Y-105007481D01*
X156379851Y-105004520D01*
X156135669Y-104942506D01*
X156126472Y-104940884D01*
X155917247Y-104919816D01*
X155910955Y-104919500D01*
X154847115Y-104919500D01*
X154831876Y-104923975D01*
X154830671Y-104925365D01*
X154829000Y-104933048D01*
X154829000Y-106405385D01*
X154321000Y-106405385D01*
X154321000Y-104937615D01*
X154316525Y-104922376D01*
X154315135Y-104921171D01*
X154307452Y-104919500D01*
X153261002Y-104919500D01*
X153256327Y-104919673D01*
X153069074Y-104933588D01*
X153059868Y-104934964D01*
X152814126Y-104990571D01*
X152805215Y-104993295D01*
X152570392Y-105084612D01*
X152561983Y-105088623D01*
X152343240Y-105213646D01*
X152335514Y-105218857D01*
X152137650Y-105374841D01*
X152130782Y-105381134D01*
X151958152Y-105564644D01*
X151952278Y-105571898D01*
X151808673Y-105778903D01*
X151803940Y-105786938D01*
X151692505Y-106012907D01*
X151689017Y-106021540D01*
X151612205Y-106261502D01*
X151610029Y-106270562D01*
X151580648Y-106450967D01*
X151549956Y-106514987D01*
X151489524Y-106552250D01*
X151418540Y-106550926D01*
X151378091Y-106527838D01*
X151377613Y-106528496D01*
X151236957Y-106426303D01*
X151236956Y-106426302D01*
X151231615Y-106422422D01*
X151225587Y-106419738D01*
X151225585Y-106419737D01*
X151072783Y-106351705D01*
X151072781Y-106351705D01*
X151066752Y-106349020D01*
X150978492Y-106330260D01*
X150896689Y-106312872D01*
X150896685Y-106312872D01*
X150890232Y-106311500D01*
X150709768Y-106311500D01*
X150703315Y-106312872D01*
X150703311Y-106312872D01*
X150621508Y-106330260D01*
X150533248Y-106349020D01*
X150527219Y-106351704D01*
X150527217Y-106351705D01*
X150374416Y-106419737D01*
X150374414Y-106419738D01*
X150368386Y-106422422D01*
X150363045Y-106426302D01*
X150363044Y-106426303D01*
X150227731Y-106524613D01*
X150227729Y-106524615D01*
X150222387Y-106528496D01*
X150217966Y-106533406D01*
X150217965Y-106533407D01*
X150146107Y-106613214D01*
X150101633Y-106662607D01*
X150011401Y-106818893D01*
X150009359Y-106825178D01*
X149972908Y-106937365D01*
X149955635Y-106990525D01*
X149936771Y-107170000D01*
X149955635Y-107349475D01*
X149957675Y-107355753D01*
X149957675Y-107355754D01*
X149988825Y-107451625D01*
X150011401Y-107521107D01*
X150024620Y-107544002D01*
X150041500Y-107607001D01*
X150041500Y-110095591D01*
X150040507Y-110111382D01*
X150036775Y-110140926D01*
X150037463Y-110147940D01*
X150038775Y-110161317D01*
X150038989Y-110183498D01*
X150029406Y-110305286D01*
X150026996Y-110335913D01*
X150023903Y-110355442D01*
X149983055Y-110525591D01*
X149976947Y-110544391D01*
X149909983Y-110706061D01*
X149901011Y-110723671D01*
X149812445Y-110868199D01*
X149809585Y-110872867D01*
X149797964Y-110888863D01*
X149705612Y-110996995D01*
X149692668Y-111009343D01*
X149692675Y-111009350D01*
X149687631Y-111014255D01*
X149682062Y-111018575D01*
X149677592Y-111024017D01*
X149677591Y-111024018D01*
X149655238Y-111051232D01*
X149646967Y-111060352D01*
X148493394Y-112213925D01*
X148480129Y-112225457D01*
X148464491Y-112237241D01*
X148464487Y-112237245D01*
X148461328Y-112239625D01*
X148446047Y-112254485D01*
X148443590Y-112257563D01*
X148443580Y-112257574D01*
X148434032Y-112269536D01*
X148428938Y-112275523D01*
X148265061Y-112456338D01*
X148103608Y-112674036D01*
X147964271Y-112906511D01*
X147848392Y-113151524D01*
X147757087Y-113406716D01*
X147756336Y-113409715D01*
X147756334Y-113409721D01*
X147699557Y-113636399D01*
X147691234Y-113669628D01*
X147690782Y-113672678D01*
X147690780Y-113672686D01*
X147656071Y-113906696D01*
X147651468Y-113937729D01*
X147651316Y-113940814D01*
X147651316Y-113940819D01*
X147643178Y-114106523D01*
X147642586Y-114112428D01*
X147642192Y-114114037D01*
X147641500Y-114125191D01*
X147641500Y-114137610D01*
X147641348Y-114143792D01*
X147640693Y-114157127D01*
X147639619Y-114168478D01*
X147636999Y-114187124D01*
X147636701Y-114208437D01*
X147638389Y-114223484D01*
X147640715Y-114244220D01*
X147641500Y-114258266D01*
X147641500Y-115581284D01*
X147621498Y-115649405D01*
X147598577Y-115676016D01*
X147577069Y-115694878D01*
X147577065Y-115694882D01*
X147572723Y-115698690D01*
X147569148Y-115703225D01*
X147569147Y-115703226D01*
X147540485Y-115739584D01*
X147446596Y-115858681D01*
X147351737Y-116038978D01*
X147291323Y-116233543D01*
X147267377Y-116435859D01*
X147280702Y-116639151D01*
X147330850Y-116836610D01*
X147333269Y-116841857D01*
X147389001Y-116962749D01*
X147399356Y-117032986D01*
X147370093Y-117097672D01*
X147310505Y-117136269D01*
X147274575Y-117141500D01*
X144411946Y-117141500D01*
X144343825Y-117121498D01*
X144297332Y-117067842D01*
X144287228Y-116997568D01*
X144302011Y-116953937D01*
X144322249Y-116917799D01*
X144324105Y-116912332D01*
X144324107Y-116912327D01*
X144385879Y-116730352D01*
X144385880Y-116730347D01*
X144387735Y-116724883D01*
X144416968Y-116523263D01*
X144418117Y-116479400D01*
X144439896Y-116411826D01*
X144454979Y-116393604D01*
X145799227Y-115049356D01*
X145812494Y-115037822D01*
X145831430Y-115023553D01*
X145846791Y-115008615D01*
X145859326Y-114992912D01*
X145864432Y-114986912D01*
X146025926Y-114808734D01*
X146025927Y-114808733D01*
X146028006Y-114806439D01*
X146189695Y-114588429D01*
X146329237Y-114355622D01*
X146430891Y-114140696D01*
X146443963Y-114113059D01*
X146443965Y-114113054D01*
X146445288Y-114110257D01*
X146519021Y-113904192D01*
X146535687Y-113857616D01*
X146535689Y-113857609D01*
X146536730Y-113854700D01*
X146541382Y-113836131D01*
X146601934Y-113594399D01*
X146602683Y-113591409D01*
X146612164Y-113527500D01*
X146620492Y-113471358D01*
X146642511Y-113322923D01*
X146643207Y-113308773D01*
X146649240Y-113185993D01*
X146650794Y-113154373D01*
X146651395Y-113148377D01*
X146651804Y-113146706D01*
X146652500Y-113135488D01*
X146652500Y-113122734D01*
X146652652Y-113116548D01*
X146653292Y-113103528D01*
X146654366Y-113092180D01*
X146656474Y-113077178D01*
X146656474Y-113077177D01*
X146657026Y-113073250D01*
X146657325Y-113051825D01*
X146653285Y-113015805D01*
X146652500Y-113001761D01*
X146652500Y-108835859D01*
X147242377Y-108835859D01*
X147255702Y-109039151D01*
X147305850Y-109236610D01*
X147391143Y-109421624D01*
X147508724Y-109587997D01*
X147512858Y-109592024D01*
X147630995Y-109707108D01*
X147654655Y-109730157D01*
X147659451Y-109733362D01*
X147659454Y-109733364D01*
X147727394Y-109778760D01*
X147824048Y-109843342D01*
X147829351Y-109845620D01*
X147829354Y-109845622D01*
X148005925Y-109921483D01*
X148011232Y-109923763D01*
X148084062Y-109940243D01*
X148204300Y-109967450D01*
X148204305Y-109967451D01*
X148209937Y-109968725D01*
X148215708Y-109968952D01*
X148215710Y-109968952D01*
X148278715Y-109971427D01*
X148413508Y-109976723D01*
X148615128Y-109947490D01*
X148620592Y-109945635D01*
X148620597Y-109945634D01*
X148802572Y-109883862D01*
X148802577Y-109883860D01*
X148808044Y-109882004D01*
X148985796Y-109782458D01*
X149142431Y-109652186D01*
X149272703Y-109495551D01*
X149372249Y-109317799D01*
X149374105Y-109312332D01*
X149374107Y-109312327D01*
X149435879Y-109130352D01*
X149435880Y-109130347D01*
X149437735Y-109124883D01*
X149466968Y-108923263D01*
X149468494Y-108865000D01*
X149455289Y-108721289D01*
X149450382Y-108667880D01*
X149450381Y-108667877D01*
X149449853Y-108662126D01*
X149440236Y-108628026D01*
X149396120Y-108471606D01*
X149396119Y-108471604D01*
X149394552Y-108466047D01*
X149387101Y-108450936D01*
X149307001Y-108288510D01*
X149304446Y-108283329D01*
X149294783Y-108270388D01*
X149186003Y-108124715D01*
X149186003Y-108124714D01*
X149182550Y-108120091D01*
X149078937Y-108024312D01*
X149037188Y-107985719D01*
X149037185Y-107985717D01*
X149032948Y-107981800D01*
X148954837Y-107932516D01*
X148865533Y-107876169D01*
X148865528Y-107876167D01*
X148860649Y-107873088D01*
X148671425Y-107797595D01*
X148471611Y-107757849D01*
X148465837Y-107757773D01*
X148465833Y-107757773D01*
X148362697Y-107756424D01*
X148267900Y-107755183D01*
X148262203Y-107756162D01*
X148262202Y-107756162D01*
X148105420Y-107783102D01*
X148067115Y-107789684D01*
X147875979Y-107860198D01*
X147871018Y-107863150D01*
X147871017Y-107863150D01*
X147725702Y-107949604D01*
X147700894Y-107964363D01*
X147547723Y-108098690D01*
X147544156Y-108103215D01*
X147544151Y-108103220D01*
X147473518Y-108192818D01*
X147421596Y-108258681D01*
X147418907Y-108263792D01*
X147418905Y-108263795D01*
X147385858Y-108326608D01*
X147326737Y-108438978D01*
X147266323Y-108633543D01*
X147242377Y-108835859D01*
X146652500Y-108835859D01*
X146652500Y-108334664D01*
X146653493Y-108318874D01*
X146656367Y-108296119D01*
X146657250Y-108289131D01*
X146656563Y-108282124D01*
X146656563Y-108282118D01*
X146655245Y-108268677D01*
X146655032Y-108246499D01*
X146666306Y-108103220D01*
X146666975Y-108094714D01*
X146670068Y-108075187D01*
X146680065Y-108033547D01*
X146696704Y-107964236D01*
X146710768Y-107905652D01*
X146716877Y-107886849D01*
X146727916Y-107860198D01*
X146783599Y-107725764D01*
X146792572Y-107708153D01*
X146883670Y-107559492D01*
X146895291Y-107543497D01*
X146987183Y-107435902D01*
X147000132Y-107423549D01*
X147000126Y-107423543D01*
X147005181Y-107418627D01*
X147010744Y-107414312D01*
X147037730Y-107381458D01*
X147046000Y-107372338D01*
X154083607Y-100334731D01*
X154095476Y-100324266D01*
X154113593Y-100310213D01*
X154119160Y-100305895D01*
X154132274Y-100289930D01*
X154147809Y-100274095D01*
X154172998Y-100252582D01*
X154237788Y-100223551D01*
X154307987Y-100234158D01*
X154361309Y-100281033D01*
X154372809Y-100304164D01*
X154379385Y-100321705D01*
X154466739Y-100438261D01*
X154583295Y-100525615D01*
X154591704Y-100528767D01*
X154591705Y-100528768D01*
X154651164Y-100551058D01*
X154707929Y-100593699D01*
X154732629Y-100660261D01*
X154717422Y-100729609D01*
X154698029Y-100756091D01*
X154631639Y-100825564D01*
X154628725Y-100829836D01*
X154628724Y-100829837D01*
X154574948Y-100908670D01*
X154501119Y-101016899D01*
X154403602Y-101226981D01*
X154341707Y-101450169D01*
X154317095Y-101680469D01*
X154317392Y-101685622D01*
X154317392Y-101685625D01*
X154328211Y-101873265D01*
X154330427Y-101911697D01*
X154331564Y-101916743D01*
X154331565Y-101916749D01*
X154354766Y-102019696D01*
X154381346Y-102137642D01*
X154383288Y-102142424D01*
X154383289Y-102142428D01*
X154448895Y-102303995D01*
X154468484Y-102352237D01*
X154589501Y-102549719D01*
X154741147Y-102724784D01*
X154919349Y-102872730D01*
X155119322Y-102989584D01*
X155124147Y-102991426D01*
X155124148Y-102991427D01*
X155198665Y-103019883D01*
X155335694Y-103072209D01*
X155340760Y-103073240D01*
X155340761Y-103073240D01*
X155389913Y-103083240D01*
X155562656Y-103118385D01*
X155692607Y-103123150D01*
X155788949Y-103126683D01*
X155788953Y-103126683D01*
X155794113Y-103126872D01*
X155799233Y-103126216D01*
X155799235Y-103126216D01*
X155872270Y-103116860D01*
X156023847Y-103097442D01*
X156028795Y-103095957D01*
X156028802Y-103095956D01*
X156240747Y-103032369D01*
X156245690Y-103030886D01*
X156250324Y-103028616D01*
X156449049Y-102931262D01*
X156449052Y-102931260D01*
X156453684Y-102928991D01*
X156642243Y-102794494D01*
X156806303Y-102631005D01*
X156813130Y-102621505D01*
X156831588Y-102595817D01*
X156941458Y-102442917D01*
X156981333Y-102362237D01*
X157041784Y-102239922D01*
X157041785Y-102239920D01*
X157044078Y-102235280D01*
X157111408Y-102013671D01*
X157141640Y-101784041D01*
X157142842Y-101734863D01*
X157143245Y-101718365D01*
X157143245Y-101718361D01*
X157143327Y-101715000D01*
X157128553Y-101535297D01*
X157124773Y-101489318D01*
X157124772Y-101489312D01*
X157124349Y-101484167D01*
X157091850Y-101354781D01*
X157069184Y-101264544D01*
X157069183Y-101264540D01*
X157067925Y-101259533D01*
X157065866Y-101254797D01*
X156977630Y-101051868D01*
X156977628Y-101051865D01*
X156975570Y-101047131D01*
X156849764Y-100852665D01*
X156846282Y-100848838D01*
X156759848Y-100753848D01*
X156728796Y-100690002D01*
X156737192Y-100619504D01*
X156782369Y-100564736D01*
X156808812Y-100551067D01*
X156868297Y-100528767D01*
X156876705Y-100525615D01*
X156993261Y-100438261D01*
X157080615Y-100321705D01*
X157131745Y-100185316D01*
X157138500Y-100123134D01*
X157138500Y-98226866D01*
X157131745Y-98164684D01*
X157080615Y-98028295D01*
X156993261Y-97911739D01*
X156876705Y-97824385D01*
X156740316Y-97773255D01*
X156678134Y-97766500D01*
X154781866Y-97766500D01*
X154719684Y-97773255D01*
X154583295Y-97824385D01*
X154466739Y-97911739D01*
X154379385Y-98028295D01*
X154328255Y-98164684D01*
X154321500Y-98226866D01*
X154321500Y-98393396D01*
X154301498Y-98461517D01*
X154247842Y-98508010D01*
X154226123Y-98515618D01*
X154195559Y-98523273D01*
X154067779Y-98568992D01*
X153942913Y-98613668D01*
X153942906Y-98613671D01*
X153939999Y-98614711D01*
X153937203Y-98616033D01*
X153937199Y-98616035D01*
X153902014Y-98632676D01*
X153694633Y-98730757D01*
X153461822Y-98870295D01*
X153459341Y-98872135D01*
X153246297Y-99030135D01*
X153246290Y-99030141D01*
X153243810Y-99031980D01*
X153118766Y-99145311D01*
X153114111Y-99149116D01*
X153112633Y-99150013D01*
X153104209Y-99157453D01*
X153095193Y-99166469D01*
X153090714Y-99170734D01*
X153081052Y-99179491D01*
X153072265Y-99186759D01*
X153057000Y-99198262D01*
X153041639Y-99213200D01*
X153039173Y-99216289D01*
X153019023Y-99241530D01*
X153009647Y-99252015D01*
X145980770Y-106280892D01*
X145967504Y-106292425D01*
X145951717Y-106304321D01*
X145951712Y-106304325D01*
X145948562Y-106306699D01*
X145933201Y-106321637D01*
X145920762Y-106337219D01*
X145915673Y-106343200D01*
X145751981Y-106523808D01*
X145590296Y-106741821D01*
X145588702Y-106744481D01*
X145588701Y-106744482D01*
X145468489Y-106945048D01*
X145450757Y-106974632D01*
X145334711Y-107219999D01*
X145243273Y-107475559D01*
X145242522Y-107478558D01*
X145242520Y-107478564D01*
X145193617Y-107673809D01*
X145177326Y-107738851D01*
X145176871Y-107741920D01*
X145176870Y-107741924D01*
X145169931Y-107788705D01*
X145137503Y-108007339D01*
X145137351Y-108010430D01*
X145137351Y-108010432D01*
X145129235Y-108175682D01*
X145128621Y-108181804D01*
X145128196Y-108183539D01*
X145127500Y-108194757D01*
X145127500Y-108207918D01*
X145127348Y-108214101D01*
X145126738Y-108226517D01*
X145125664Y-108237867D01*
X145122974Y-108257012D01*
X145122843Y-108266377D01*
X145122735Y-108274156D01*
X145122675Y-108278437D01*
X145123116Y-108282364D01*
X145123116Y-108282373D01*
X145126715Y-108314450D01*
X145127500Y-108328497D01*
X145127500Y-112995575D01*
X145126506Y-113011367D01*
X145122750Y-113041097D01*
X145123437Y-113048105D01*
X145123437Y-113048117D01*
X145124766Y-113061664D01*
X145124979Y-113083848D01*
X145113041Y-113235510D01*
X145109948Y-113255038D01*
X145069245Y-113424571D01*
X145063136Y-113443374D01*
X144996411Y-113604461D01*
X144987434Y-113622079D01*
X144896333Y-113770739D01*
X144884711Y-113786734D01*
X144792777Y-113894373D01*
X144779871Y-113906685D01*
X144779882Y-113906696D01*
X144774833Y-113911606D01*
X144769266Y-113915924D01*
X144764795Y-113921367D01*
X144764794Y-113921368D01*
X144742270Y-113948789D01*
X144734001Y-113957907D01*
X143372779Y-115319128D01*
X143310467Y-115353154D01*
X143282036Y-115356022D01*
X143251186Y-115355619D01*
X143217900Y-115355183D01*
X143212203Y-115356162D01*
X143212202Y-115356162D01*
X143022812Y-115388705D01*
X143017115Y-115389684D01*
X142825979Y-115460198D01*
X142650894Y-115564363D01*
X142497723Y-115698690D01*
X142494156Y-115703215D01*
X142494151Y-115703220D01*
X142407576Y-115813040D01*
X142371596Y-115858681D01*
X142276737Y-116038978D01*
X142216323Y-116233543D01*
X142192377Y-116435859D01*
X142205702Y-116639151D01*
X142255850Y-116836610D01*
X142258269Y-116841857D01*
X142314001Y-116962749D01*
X142324356Y-117032986D01*
X142295093Y-117097672D01*
X142235505Y-117136269D01*
X142199575Y-117141500D01*
X139311946Y-117141500D01*
X139243825Y-117121498D01*
X139197332Y-117067842D01*
X139187228Y-116997568D01*
X139202011Y-116953937D01*
X139222249Y-116917799D01*
X139224105Y-116912332D01*
X139224107Y-116912327D01*
X139285879Y-116730352D01*
X139285880Y-116730347D01*
X139287735Y-116724883D01*
X139316968Y-116523263D01*
X139318494Y-116465000D01*
X139299853Y-116262126D01*
X139244552Y-116066047D01*
X139233925Y-116044496D01*
X139157001Y-115888510D01*
X139154446Y-115883329D01*
X139136041Y-115858681D01*
X139036003Y-115724715D01*
X139036003Y-115724714D01*
X139032550Y-115720091D01*
X138882948Y-115581800D01*
X138836920Y-115552759D01*
X138715533Y-115476169D01*
X138715528Y-115476167D01*
X138710649Y-115473088D01*
X138521425Y-115397595D01*
X138321611Y-115357849D01*
X138315837Y-115357773D01*
X138315833Y-115357773D01*
X138212697Y-115356424D01*
X138117900Y-115355183D01*
X138112203Y-115356162D01*
X138112202Y-115356162D01*
X137922812Y-115388705D01*
X137917115Y-115389684D01*
X137725979Y-115460198D01*
X137550894Y-115564363D01*
X137397723Y-115698690D01*
X137394156Y-115703215D01*
X137394151Y-115703220D01*
X137307576Y-115813040D01*
X137271596Y-115858681D01*
X137176737Y-116038978D01*
X137116323Y-116233543D01*
X137092377Y-116435859D01*
X137105702Y-116639151D01*
X137155850Y-116836610D01*
X137158269Y-116841857D01*
X137214001Y-116962749D01*
X137224356Y-117032986D01*
X137195093Y-117097672D01*
X137135505Y-117136269D01*
X137099575Y-117141500D01*
X131686946Y-117141500D01*
X131618825Y-117121498D01*
X131572332Y-117067842D01*
X131562228Y-116997568D01*
X131577011Y-116953937D01*
X131597249Y-116917799D01*
X131599105Y-116912332D01*
X131599107Y-116912327D01*
X131660879Y-116730352D01*
X131660880Y-116730347D01*
X131662735Y-116724883D01*
X131691968Y-116523263D01*
X131693258Y-116474014D01*
X131715037Y-116406440D01*
X131730120Y-116388218D01*
X132832933Y-115285405D01*
X132895245Y-115251379D01*
X132922028Y-115248500D01*
X133668134Y-115248500D01*
X133730316Y-115241745D01*
X133866705Y-115190615D01*
X133983261Y-115103261D01*
X133988642Y-115096081D01*
X133994992Y-115089731D01*
X133997641Y-115092380D01*
X134040289Y-115060448D01*
X134084331Y-115052500D01*
X136529129Y-115052500D01*
X136546654Y-115053725D01*
X136570138Y-115057026D01*
X136583513Y-115057213D01*
X136587615Y-115057270D01*
X136587617Y-115057270D01*
X136591563Y-115057325D01*
X136611338Y-115055107D01*
X136619185Y-115054475D01*
X136784692Y-115046347D01*
X136859570Y-115042669D01*
X136859572Y-115042669D01*
X136862663Y-115042517D01*
X137037765Y-115016545D01*
X137128080Y-115003150D01*
X137128084Y-115003149D01*
X137131153Y-115002694D01*
X137134161Y-115001941D01*
X137134164Y-115001940D01*
X137391440Y-114937499D01*
X137391441Y-114937499D01*
X137394446Y-114936746D01*
X137650008Y-114845308D01*
X137895377Y-114729261D01*
X137898037Y-114727666D01*
X137898042Y-114727664D01*
X138125528Y-114591317D01*
X138125529Y-114591316D01*
X138128189Y-114589722D01*
X138154164Y-114570458D01*
X138343716Y-114429880D01*
X138343723Y-114429874D01*
X138346203Y-114428035D01*
X138471375Y-114314588D01*
X138475955Y-114310844D01*
X138477367Y-114309987D01*
X138485791Y-114302547D01*
X138494533Y-114293805D01*
X138499015Y-114289537D01*
X138509120Y-114280379D01*
X138517904Y-114273114D01*
X138529835Y-114264123D01*
X138529836Y-114264123D01*
X138533000Y-114261738D01*
X138548361Y-114246800D01*
X138570977Y-114218470D01*
X138580353Y-114207985D01*
X140669230Y-112119108D01*
X140682496Y-112107575D01*
X140698283Y-112095679D01*
X140698288Y-112095675D01*
X140701438Y-112093301D01*
X140716799Y-112078363D01*
X140729013Y-112063063D01*
X140734121Y-112057060D01*
X140895953Y-111878500D01*
X140898034Y-111876204D01*
X140899873Y-111873724D01*
X140899879Y-111873717D01*
X141057875Y-111660679D01*
X141059721Y-111658190D01*
X141199260Y-111425378D01*
X141213396Y-111395491D01*
X141313984Y-111182809D01*
X141313986Y-111182804D01*
X141315308Y-111180009D01*
X141352267Y-111076713D01*
X141367370Y-111034500D01*
X141406746Y-110924447D01*
X141409622Y-110912967D01*
X141471940Y-110664164D01*
X141471941Y-110664161D01*
X141472694Y-110661153D01*
X141512517Y-110392663D01*
X141520795Y-110224118D01*
X141521396Y-110218127D01*
X141521804Y-110216461D01*
X141522500Y-110205243D01*
X141522500Y-110192494D01*
X141522652Y-110186312D01*
X141523293Y-110173263D01*
X141524367Y-110161913D01*
X141526474Y-110146920D01*
X141526475Y-110146912D01*
X141527026Y-110142988D01*
X141527325Y-110121563D01*
X141526884Y-110117636D01*
X141526884Y-110117627D01*
X141523285Y-110085550D01*
X141522500Y-110071503D01*
X141522500Y-108944664D01*
X141523493Y-108928874D01*
X141526367Y-108906119D01*
X141527250Y-108899131D01*
X141526563Y-108892124D01*
X141526563Y-108892118D01*
X141525245Y-108878677D01*
X141525032Y-108856499D01*
X141526656Y-108835859D01*
X142192377Y-108835859D01*
X142205702Y-109039151D01*
X142255850Y-109236610D01*
X142341143Y-109421624D01*
X142458724Y-109587997D01*
X142462858Y-109592024D01*
X142580995Y-109707108D01*
X142604655Y-109730157D01*
X142609451Y-109733362D01*
X142609454Y-109733364D01*
X142677394Y-109778760D01*
X142774048Y-109843342D01*
X142779351Y-109845620D01*
X142779354Y-109845622D01*
X142955925Y-109921483D01*
X142961232Y-109923763D01*
X143034062Y-109940243D01*
X143154300Y-109967450D01*
X143154305Y-109967451D01*
X143159937Y-109968725D01*
X143165708Y-109968952D01*
X143165710Y-109968952D01*
X143228715Y-109971427D01*
X143363508Y-109976723D01*
X143565128Y-109947490D01*
X143570592Y-109945635D01*
X143570597Y-109945634D01*
X143752572Y-109883862D01*
X143752577Y-109883860D01*
X143758044Y-109882004D01*
X143935796Y-109782458D01*
X144092431Y-109652186D01*
X144222703Y-109495551D01*
X144322249Y-109317799D01*
X144324105Y-109312332D01*
X144324107Y-109312327D01*
X144385879Y-109130352D01*
X144385880Y-109130347D01*
X144387735Y-109124883D01*
X144416968Y-108923263D01*
X144418494Y-108865000D01*
X144405289Y-108721289D01*
X144400382Y-108667880D01*
X144400381Y-108667877D01*
X144399853Y-108662126D01*
X144390236Y-108628026D01*
X144346120Y-108471606D01*
X144346119Y-108471604D01*
X144344552Y-108466047D01*
X144337101Y-108450936D01*
X144257001Y-108288510D01*
X144254446Y-108283329D01*
X144244783Y-108270388D01*
X144136003Y-108124715D01*
X144136003Y-108124714D01*
X144132550Y-108120091D01*
X144028937Y-108024312D01*
X143987188Y-107985719D01*
X143987185Y-107985717D01*
X143982948Y-107981800D01*
X143904837Y-107932516D01*
X143815533Y-107876169D01*
X143815528Y-107876167D01*
X143810649Y-107873088D01*
X143621425Y-107797595D01*
X143421611Y-107757849D01*
X143415837Y-107757773D01*
X143415833Y-107757773D01*
X143312697Y-107756424D01*
X143217900Y-107755183D01*
X143212203Y-107756162D01*
X143212202Y-107756162D01*
X143055420Y-107783102D01*
X143017115Y-107789684D01*
X142825979Y-107860198D01*
X142821018Y-107863150D01*
X142821017Y-107863150D01*
X142675702Y-107949604D01*
X142650894Y-107964363D01*
X142497723Y-108098690D01*
X142494156Y-108103215D01*
X142494151Y-108103220D01*
X142423518Y-108192818D01*
X142371596Y-108258681D01*
X142368907Y-108263792D01*
X142368905Y-108263795D01*
X142335858Y-108326608D01*
X142276737Y-108438978D01*
X142216323Y-108633543D01*
X142192377Y-108835859D01*
X141526656Y-108835859D01*
X141536975Y-108704716D01*
X141540068Y-108685187D01*
X141557098Y-108614251D01*
X141579349Y-108521562D01*
X141580768Y-108515652D01*
X141586877Y-108496849D01*
X141593580Y-108480667D01*
X141653599Y-108335764D01*
X141662572Y-108318153D01*
X141666525Y-108311703D01*
X141753667Y-108169496D01*
X141765288Y-108153500D01*
X141783847Y-108131770D01*
X141857191Y-108045894D01*
X141870134Y-108033547D01*
X141870128Y-108033541D01*
X141875181Y-108028627D01*
X141880743Y-108024312D01*
X141907734Y-107991452D01*
X141915996Y-107982342D01*
X145979230Y-103919108D01*
X145992496Y-103907575D01*
X146008283Y-103895679D01*
X146008288Y-103895675D01*
X146011438Y-103893301D01*
X146026799Y-103878363D01*
X146039013Y-103863063D01*
X146044121Y-103857060D01*
X146183491Y-103703284D01*
X146208034Y-103676204D01*
X146209873Y-103673724D01*
X146209879Y-103673717D01*
X146364796Y-103464831D01*
X146369721Y-103458190D01*
X146509260Y-103225378D01*
X146551120Y-103136872D01*
X146623984Y-102982809D01*
X146623986Y-102982804D01*
X146625308Y-102980009D01*
X146639172Y-102941262D01*
X146671027Y-102852228D01*
X146716746Y-102724447D01*
X146717641Y-102720877D01*
X146781940Y-102464164D01*
X146781941Y-102464161D01*
X146782694Y-102461153D01*
X146822517Y-102192663D01*
X146830795Y-102024118D01*
X146831396Y-102018127D01*
X146831804Y-102016461D01*
X146832500Y-102005243D01*
X146832500Y-101992494D01*
X146832652Y-101986312D01*
X146833293Y-101973263D01*
X146834367Y-101961913D01*
X146836474Y-101946920D01*
X146836475Y-101946912D01*
X146837026Y-101942988D01*
X146837325Y-101921563D01*
X146836884Y-101917636D01*
X146836884Y-101917627D01*
X146833285Y-101885550D01*
X146832500Y-101871503D01*
X146832500Y-100995871D01*
X146833725Y-100978346D01*
X146837026Y-100954862D01*
X146837325Y-100933437D01*
X146835107Y-100913662D01*
X146834475Y-100905809D01*
X146832570Y-100867009D01*
X146822517Y-100662337D01*
X146782694Y-100393847D01*
X146781738Y-100390028D01*
X146717499Y-100133560D01*
X146717499Y-100133559D01*
X146716746Y-100130554D01*
X146625308Y-99874992D01*
X146509261Y-99629623D01*
X146468683Y-99561920D01*
X146371317Y-99399472D01*
X146371316Y-99399471D01*
X146369722Y-99396811D01*
X146294994Y-99296050D01*
X146209880Y-99181284D01*
X146209874Y-99181277D01*
X146208035Y-99178797D01*
X146094576Y-99053612D01*
X146090847Y-99049051D01*
X146089987Y-99047633D01*
X146082546Y-99039209D01*
X146073815Y-99030478D01*
X146069547Y-99025996D01*
X146060379Y-99015880D01*
X146053114Y-99007096D01*
X146044123Y-98995165D01*
X146044123Y-98995164D01*
X146041738Y-98992000D01*
X146026800Y-98976639D01*
X145998465Y-98954019D01*
X145987980Y-98944643D01*
X145261050Y-98217713D01*
X145227024Y-98155401D01*
X145224624Y-98117637D01*
X145234874Y-98000476D01*
X145234874Y-98000475D01*
X145235353Y-97995000D01*
X145215978Y-97773537D01*
X145158440Y-97558804D01*
X145116081Y-97467965D01*
X145066814Y-97362311D01*
X145066811Y-97362306D01*
X145064488Y-97357324D01*
X145061331Y-97352815D01*
X144940136Y-97179730D01*
X144940134Y-97179727D01*
X144936977Y-97175219D01*
X144779781Y-97018023D01*
X144775273Y-97014866D01*
X144775270Y-97014864D01*
X144683900Y-96950886D01*
X144597677Y-96890512D01*
X144592695Y-96888189D01*
X144592690Y-96888186D01*
X144401178Y-96798883D01*
X144401177Y-96798882D01*
X144396196Y-96796560D01*
X144390888Y-96795138D01*
X144390886Y-96795137D01*
X144325051Y-96777497D01*
X144181463Y-96739022D01*
X143960000Y-96719647D01*
X143738537Y-96739022D01*
X143594949Y-96777497D01*
X143529114Y-96795137D01*
X143529112Y-96795138D01*
X143523804Y-96796560D01*
X143518823Y-96798882D01*
X143518822Y-96798883D01*
X143327311Y-96888186D01*
X143327306Y-96888189D01*
X143322324Y-96890512D01*
X143317817Y-96893668D01*
X143317815Y-96893669D01*
X143144730Y-97014864D01*
X143144727Y-97014866D01*
X143140219Y-97018023D01*
X142983023Y-97175219D01*
X142979866Y-97179727D01*
X142979864Y-97179730D01*
X142858669Y-97352815D01*
X142855512Y-97357324D01*
X142853189Y-97362306D01*
X142853186Y-97362311D01*
X142803919Y-97467965D01*
X142757001Y-97521250D01*
X142688724Y-97540711D01*
X142620764Y-97520169D01*
X142575529Y-97467965D01*
X142526377Y-97362559D01*
X142520897Y-97353068D01*
X142490206Y-97309235D01*
X142479729Y-97300860D01*
X142466282Y-97307928D01*
X141792022Y-97982188D01*
X141784408Y-97996132D01*
X141784539Y-97997965D01*
X141788790Y-98004580D01*
X142467003Y-98682793D01*
X142478777Y-98689223D01*
X142490793Y-98679926D01*
X142520897Y-98636932D01*
X142526377Y-98627441D01*
X142575529Y-98522035D01*
X142622447Y-98468750D01*
X142690724Y-98449289D01*
X142758684Y-98469831D01*
X142803919Y-98522035D01*
X142853186Y-98627689D01*
X142853189Y-98627694D01*
X142855512Y-98632676D01*
X142858668Y-98637183D01*
X142858669Y-98637185D01*
X142923263Y-98729434D01*
X142983023Y-98814781D01*
X143140219Y-98971977D01*
X143144727Y-98975134D01*
X143144730Y-98975136D01*
X143190374Y-99007096D01*
X143322323Y-99099488D01*
X143327305Y-99101811D01*
X143327310Y-99101814D01*
X143517810Y-99190645D01*
X143523804Y-99193440D01*
X143529112Y-99194862D01*
X143529114Y-99194863D01*
X143552100Y-99201022D01*
X143738537Y-99250978D01*
X143960000Y-99270353D01*
X143965475Y-99269874D01*
X143965476Y-99269874D01*
X144082636Y-99259624D01*
X144152240Y-99273613D01*
X144182712Y-99296050D01*
X144905269Y-100018607D01*
X144915734Y-100030475D01*
X144934105Y-100054160D01*
X144939542Y-100058626D01*
X144939547Y-100058631D01*
X144950156Y-100067345D01*
X144965993Y-100082881D01*
X145064725Y-100198485D01*
X145076346Y-100214480D01*
X145167446Y-100363144D01*
X145176419Y-100380755D01*
X145240562Y-100535615D01*
X145243142Y-100541843D01*
X145249251Y-100560646D01*
X145280306Y-100690002D01*
X145289952Y-100730184D01*
X145293045Y-100749713D01*
X145304145Y-100890777D01*
X145303723Y-100908670D01*
X145303732Y-100908670D01*
X145303634Y-100915710D01*
X145302750Y-100922703D01*
X145305515Y-100950905D01*
X145306899Y-100965024D01*
X145307500Y-100977318D01*
X145307500Y-101865336D01*
X145306507Y-101881126D01*
X145302750Y-101910869D01*
X145303437Y-101917876D01*
X145303437Y-101917882D01*
X145304766Y-101931436D01*
X145304979Y-101953613D01*
X145293045Y-102105286D01*
X145289952Y-102124814D01*
X145284472Y-102147642D01*
X145249251Y-102294355D01*
X145243141Y-102313159D01*
X145185254Y-102452917D01*
X145176422Y-102474239D01*
X145167447Y-102491855D01*
X145161670Y-102501281D01*
X145076346Y-102640520D01*
X145064725Y-102656515D01*
X144972895Y-102764037D01*
X144959717Y-102776609D01*
X144954816Y-102781375D01*
X144949256Y-102785688D01*
X144944790Y-102791125D01*
X144944787Y-102791128D01*
X144922270Y-102818542D01*
X144914000Y-102827662D01*
X140850769Y-106890893D01*
X140837504Y-106902425D01*
X140818561Y-106916700D01*
X140803200Y-106931639D01*
X140800738Y-106934724D01*
X140800732Y-106934730D01*
X140790795Y-106947179D01*
X140785680Y-106953191D01*
X140624062Y-107131512D01*
X140624055Y-107131521D01*
X140621980Y-107133810D01*
X140460295Y-107351822D01*
X140320757Y-107584633D01*
X140319434Y-107587431D01*
X140207831Y-107823403D01*
X140204711Y-107829999D01*
X140203671Y-107832906D01*
X140203668Y-107832913D01*
X140164112Y-107943468D01*
X140113273Y-108085559D01*
X140112522Y-108088558D01*
X140112520Y-108088564D01*
X140052897Y-108326608D01*
X140047326Y-108348851D01*
X140046871Y-108351920D01*
X140046870Y-108351924D01*
X140034722Y-108433829D01*
X140007503Y-108617339D01*
X140007351Y-108620430D01*
X140007351Y-108620432D01*
X139999235Y-108785682D01*
X139998621Y-108791804D01*
X139998196Y-108793539D01*
X139997500Y-108804757D01*
X139997500Y-108817918D01*
X139997348Y-108824101D01*
X139996738Y-108836517D01*
X139995664Y-108847867D01*
X139992974Y-108867012D01*
X139992675Y-108888437D01*
X139993116Y-108892364D01*
X139993116Y-108892373D01*
X139996715Y-108924450D01*
X139997500Y-108938497D01*
X139997500Y-110065336D01*
X139996507Y-110081126D01*
X139992750Y-110110869D01*
X139993437Y-110117876D01*
X139993437Y-110117882D01*
X139994766Y-110131436D01*
X139994979Y-110153613D01*
X139983045Y-110305286D01*
X139979952Y-110324816D01*
X139939251Y-110494355D01*
X139933141Y-110513159D01*
X139866422Y-110674239D01*
X139857446Y-110691856D01*
X139766346Y-110840520D01*
X139754725Y-110856515D01*
X139662895Y-110964037D01*
X139649717Y-110976609D01*
X139644816Y-110981375D01*
X139639256Y-110985688D01*
X139634790Y-110991125D01*
X139634787Y-110991128D01*
X139612270Y-111018542D01*
X139604000Y-111027662D01*
X137506393Y-113125269D01*
X137494525Y-113135734D01*
X137470840Y-113154105D01*
X137466374Y-113159542D01*
X137466369Y-113159547D01*
X137457655Y-113170156D01*
X137442119Y-113185993D01*
X137326515Y-113284725D01*
X137310520Y-113296346D01*
X137161856Y-113387446D01*
X137144245Y-113396419D01*
X136983154Y-113463143D01*
X136964354Y-113469251D01*
X136882257Y-113488960D01*
X136794813Y-113509952D01*
X136775289Y-113513045D01*
X136724066Y-113517075D01*
X136634223Y-113524145D01*
X136616330Y-113523723D01*
X136616330Y-113523732D01*
X136609290Y-113523634D01*
X136602297Y-113522750D01*
X136562249Y-113526676D01*
X136559976Y-113526899D01*
X136547682Y-113527500D01*
X134084331Y-113527500D01*
X134016210Y-113507498D01*
X133996301Y-113488960D01*
X133994992Y-113490269D01*
X133988642Y-113483919D01*
X133983261Y-113476739D01*
X133866705Y-113389385D01*
X133730316Y-113338255D01*
X133668134Y-113331500D01*
X132371866Y-113331500D01*
X132309684Y-113338255D01*
X132173295Y-113389385D01*
X132056739Y-113476739D01*
X131969385Y-113593295D01*
X131918255Y-113729684D01*
X131917402Y-113737540D01*
X131912058Y-113786734D01*
X131911500Y-113791866D01*
X131911500Y-113997972D01*
X131891498Y-114066093D01*
X131874595Y-114087067D01*
X130642602Y-115319060D01*
X130580290Y-115353086D01*
X130551859Y-115355954D01*
X130520134Y-115355539D01*
X130492900Y-115355183D01*
X130487203Y-115356162D01*
X130487202Y-115356162D01*
X130297812Y-115388705D01*
X130292115Y-115389684D01*
X130100979Y-115460198D01*
X129925894Y-115564363D01*
X129772723Y-115698690D01*
X129769156Y-115703215D01*
X129769151Y-115703220D01*
X129682576Y-115813040D01*
X129646596Y-115858681D01*
X129551737Y-116038978D01*
X129491323Y-116233543D01*
X129467377Y-116435859D01*
X129480702Y-116639151D01*
X129530850Y-116836610D01*
X129533269Y-116841857D01*
X129589001Y-116962749D01*
X129599356Y-117032986D01*
X129570093Y-117097672D01*
X129510505Y-117136269D01*
X129474575Y-117141500D01*
X120034500Y-117141500D01*
X119966379Y-117121498D01*
X119919886Y-117067842D01*
X119908500Y-117015500D01*
X119908500Y-112932181D01*
X121654142Y-112932181D01*
X121710967Y-113168873D01*
X121714016Y-113178258D01*
X121808592Y-113406585D01*
X121813073Y-113415379D01*
X121942208Y-113626108D01*
X121948001Y-113634081D01*
X122108516Y-113822020D01*
X122115480Y-113828984D01*
X122303419Y-113989499D01*
X122311392Y-113995292D01*
X122522121Y-114124427D01*
X122530915Y-114128908D01*
X122759242Y-114223484D01*
X122768627Y-114226533D01*
X123008940Y-114284228D01*
X123018687Y-114285771D01*
X123203376Y-114300307D01*
X123208302Y-114300500D01*
X124122885Y-114300500D01*
X124138124Y-114296025D01*
X124139329Y-114294635D01*
X124141000Y-114286952D01*
X124141000Y-114282385D01*
X124649000Y-114282385D01*
X124653475Y-114297624D01*
X124654865Y-114298829D01*
X124662548Y-114300500D01*
X125581698Y-114300500D01*
X125586624Y-114300307D01*
X125771313Y-114285771D01*
X125781060Y-114284228D01*
X126021373Y-114226533D01*
X126030758Y-114223484D01*
X126259085Y-114128908D01*
X126267879Y-114124427D01*
X126478608Y-113995292D01*
X126486581Y-113989499D01*
X126674520Y-113828984D01*
X126681484Y-113822020D01*
X126841999Y-113634081D01*
X126847792Y-113626108D01*
X126976927Y-113415379D01*
X126981408Y-113406585D01*
X127075984Y-113178258D01*
X127079033Y-113168873D01*
X127135447Y-112933892D01*
X127133469Y-112924471D01*
X127122002Y-112921500D01*
X124667115Y-112921500D01*
X124651876Y-112925975D01*
X124650671Y-112927365D01*
X124649000Y-112935048D01*
X124649000Y-114282385D01*
X124141000Y-114282385D01*
X124141000Y-112939615D01*
X124136525Y-112924376D01*
X124135135Y-112923171D01*
X124127452Y-112921500D01*
X121670055Y-112921500D01*
X121655262Y-112925844D01*
X121654142Y-112932181D01*
X119908500Y-112932181D01*
X119908500Y-112401108D01*
X121654553Y-112401108D01*
X121656531Y-112410529D01*
X121667998Y-112413500D01*
X124122885Y-112413500D01*
X124138124Y-112409025D01*
X124139329Y-112407635D01*
X124141000Y-112399952D01*
X124141000Y-112395385D01*
X124649000Y-112395385D01*
X124653475Y-112410624D01*
X124654865Y-112411829D01*
X124662548Y-112413500D01*
X127119945Y-112413500D01*
X127134738Y-112409156D01*
X127135858Y-112402819D01*
X127079033Y-112166127D01*
X127075984Y-112156742D01*
X126981408Y-111928415D01*
X126976927Y-111919621D01*
X126847792Y-111708892D01*
X126841999Y-111700919D01*
X126681484Y-111512980D01*
X126674520Y-111506016D01*
X126486581Y-111345501D01*
X126478608Y-111339708D01*
X126267879Y-111210573D01*
X126259085Y-111206092D01*
X126030758Y-111111516D01*
X126021373Y-111108467D01*
X125781060Y-111050772D01*
X125771313Y-111049229D01*
X125586624Y-111034693D01*
X125581697Y-111034500D01*
X124667115Y-111034500D01*
X124651876Y-111038975D01*
X124650671Y-111040365D01*
X124649000Y-111048048D01*
X124649000Y-112395385D01*
X124141000Y-112395385D01*
X124141000Y-111052615D01*
X124136525Y-111037376D01*
X124135135Y-111036171D01*
X124127452Y-111034500D01*
X123208303Y-111034500D01*
X123203376Y-111034693D01*
X123018687Y-111049229D01*
X123008940Y-111050772D01*
X122768627Y-111108467D01*
X122759242Y-111111516D01*
X122530915Y-111206092D01*
X122522121Y-111210573D01*
X122311392Y-111339708D01*
X122303419Y-111345501D01*
X122115480Y-111506016D01*
X122108516Y-111512980D01*
X121948001Y-111700919D01*
X121942208Y-111708892D01*
X121813073Y-111919621D01*
X121808592Y-111928415D01*
X121714016Y-112156742D01*
X121710967Y-112166127D01*
X121654553Y-112401108D01*
X119908500Y-112401108D01*
X119908500Y-106775155D01*
X121384858Y-106775155D01*
X121420104Y-107034138D01*
X121421412Y-107038624D01*
X121421412Y-107038626D01*
X121434761Y-107084424D01*
X121493243Y-107285067D01*
X121602668Y-107522428D01*
X121616811Y-107544000D01*
X121743410Y-107737096D01*
X121743414Y-107737101D01*
X121745976Y-107741009D01*
X121920018Y-107936006D01*
X122120970Y-108103137D01*
X122124973Y-108105566D01*
X122340422Y-108236304D01*
X122340426Y-108236306D01*
X122344419Y-108238729D01*
X122585455Y-108339803D01*
X122838783Y-108404141D01*
X122843434Y-108404609D01*
X122843438Y-108404610D01*
X123010303Y-108421412D01*
X123055867Y-108426000D01*
X125711354Y-108426000D01*
X125713679Y-108425827D01*
X125713685Y-108425827D01*
X125901000Y-108411907D01*
X125901004Y-108411906D01*
X125905652Y-108411561D01*
X125910200Y-108410532D01*
X125910206Y-108410531D01*
X126125982Y-108361705D01*
X126160577Y-108353877D01*
X126164931Y-108352184D01*
X126399824Y-108260840D01*
X126399827Y-108260839D01*
X126404177Y-108259147D01*
X126412931Y-108254144D01*
X126527857Y-108188458D01*
X126631098Y-108129451D01*
X126836357Y-107967638D01*
X127015443Y-107777263D01*
X127121116Y-107624937D01*
X127161759Y-107566351D01*
X127161761Y-107566348D01*
X127164424Y-107562509D01*
X127173800Y-107543497D01*
X127277960Y-107332281D01*
X127277961Y-107332278D01*
X127280025Y-107328093D01*
X127313695Y-107222909D01*
X127358280Y-107083623D01*
X127359707Y-107079165D01*
X127401721Y-106821193D01*
X127404435Y-106613863D01*
X127405081Y-106564522D01*
X127405081Y-106564519D01*
X127405142Y-106559845D01*
X127369896Y-106300862D01*
X127360254Y-106267780D01*
X127301031Y-106064598D01*
X127296757Y-106049933D01*
X127187332Y-105812572D01*
X127111105Y-105696307D01*
X127090483Y-105628374D01*
X127109863Y-105560074D01*
X127127383Y-105538129D01*
X127335210Y-105330302D01*
X127346300Y-105320446D01*
X127365763Y-105305103D01*
X127370298Y-105301528D01*
X127374102Y-105297191D01*
X127374111Y-105297182D01*
X127395594Y-105272685D01*
X127408496Y-105259951D01*
X127484055Y-105195419D01*
X127500050Y-105183798D01*
X127546978Y-105155041D01*
X127599072Y-105123118D01*
X127616682Y-105114146D01*
X127723987Y-105069700D01*
X127742787Y-105063592D01*
X127804180Y-105048853D01*
X127855719Y-105036481D01*
X127875244Y-105033388D01*
X127891386Y-105032118D01*
X127949348Y-105027558D01*
X127962524Y-105027213D01*
X127965381Y-105027288D01*
X127971113Y-105027966D01*
X128035141Y-105023770D01*
X128043381Y-105023500D01*
X132336621Y-105023500D01*
X132351428Y-105024373D01*
X132381789Y-105027966D01*
X132419945Y-105025465D01*
X132438056Y-105025583D01*
X132537258Y-105033388D01*
X132556782Y-105036481D01*
X132669711Y-105063591D01*
X132688515Y-105069701D01*
X132795812Y-105114144D01*
X132813429Y-105123120D01*
X132912453Y-105183801D01*
X132928448Y-105195422D01*
X132984840Y-105243584D01*
X132994407Y-105252662D01*
X132996482Y-105254848D01*
X133000060Y-105259387D01*
X133048314Y-105301704D01*
X133054315Y-105307326D01*
X136780230Y-109033241D01*
X136814256Y-109095553D01*
X136809191Y-109166368D01*
X136780230Y-109211431D01*
X136166392Y-109825269D01*
X136154522Y-109835735D01*
X136136406Y-109849786D01*
X136136402Y-109849789D01*
X136130840Y-109854104D01*
X136126368Y-109859548D01*
X136126365Y-109859551D01*
X136117728Y-109870066D01*
X136102193Y-109885902D01*
X135986499Y-109984712D01*
X135970504Y-109996333D01*
X135821847Y-110087428D01*
X135804236Y-110096401D01*
X135643148Y-110163124D01*
X135624348Y-110169232D01*
X135540305Y-110189408D01*
X135454811Y-110209932D01*
X135435286Y-110213025D01*
X135294117Y-110224133D01*
X135276326Y-110223713D01*
X135276326Y-110223732D01*
X135269292Y-110223634D01*
X135262297Y-110222750D01*
X135222249Y-110226676D01*
X135219976Y-110226899D01*
X135207682Y-110227500D01*
X134084331Y-110227500D01*
X134016210Y-110207498D01*
X133996301Y-110188960D01*
X133994992Y-110190269D01*
X133988642Y-110183919D01*
X133983261Y-110176739D01*
X133866705Y-110089385D01*
X133730316Y-110038255D01*
X133668134Y-110031500D01*
X132922028Y-110031500D01*
X132853907Y-110011498D01*
X132832933Y-109994595D01*
X131725650Y-108887312D01*
X131691624Y-108825000D01*
X131688745Y-108798217D01*
X131688745Y-108216866D01*
X131681990Y-108154684D01*
X131630860Y-108018295D01*
X131543506Y-107901739D01*
X131426950Y-107814385D01*
X131290561Y-107763255D01*
X131228379Y-107756500D01*
X129932111Y-107756500D01*
X129869929Y-107763255D01*
X129733540Y-107814385D01*
X129732468Y-107811524D01*
X129678009Y-107823435D01*
X129626928Y-107808582D01*
X129548228Y-107766029D01*
X129487701Y-107733302D01*
X129298768Y-107674818D01*
X129292643Y-107674174D01*
X129292642Y-107674174D01*
X129108204Y-107654789D01*
X129108202Y-107654789D01*
X129102075Y-107654145D01*
X129019576Y-107661653D01*
X128911251Y-107671511D01*
X128911248Y-107671512D01*
X128905112Y-107672070D01*
X128899206Y-107673808D01*
X128899202Y-107673809D01*
X128798368Y-107703486D01*
X128715381Y-107727910D01*
X128709923Y-107730763D01*
X128709919Y-107730765D01*
X128620978Y-107777263D01*
X128540110Y-107819540D01*
X128385975Y-107943468D01*
X128258846Y-108094974D01*
X128255879Y-108100372D01*
X128255875Y-108100377D01*
X128205056Y-108192818D01*
X128163567Y-108268287D01*
X128161706Y-108274154D01*
X128161705Y-108274156D01*
X128110524Y-108435500D01*
X128103765Y-108456806D01*
X128086500Y-108610727D01*
X128086500Y-110717269D01*
X128086800Y-110720325D01*
X128086800Y-110720332D01*
X128087530Y-110727773D01*
X128100920Y-110864333D01*
X128102702Y-110870234D01*
X128102702Y-110870236D01*
X128119949Y-110927361D01*
X128158084Y-111053669D01*
X128250934Y-111228296D01*
X128302318Y-111291299D01*
X128372040Y-111376787D01*
X128372043Y-111376790D01*
X128375935Y-111381562D01*
X128380682Y-111385489D01*
X128380684Y-111385491D01*
X128523575Y-111503701D01*
X128523579Y-111503703D01*
X128528325Y-111507630D01*
X128702299Y-111601698D01*
X128891232Y-111660182D01*
X128897357Y-111660826D01*
X128897358Y-111660826D01*
X129081796Y-111680211D01*
X129081798Y-111680211D01*
X129087925Y-111680855D01*
X129193346Y-111671261D01*
X129278749Y-111663489D01*
X129278752Y-111663488D01*
X129284888Y-111662930D01*
X129290794Y-111661192D01*
X129290798Y-111661191D01*
X129452771Y-111613520D01*
X129474619Y-111607090D01*
X129480077Y-111604237D01*
X129480081Y-111604235D01*
X129590841Y-111546330D01*
X129649890Y-111515460D01*
X129804025Y-111391532D01*
X129931154Y-111240026D01*
X129934121Y-111234628D01*
X129934125Y-111234623D01*
X130023467Y-111072108D01*
X130026433Y-111066713D01*
X130028846Y-111059108D01*
X130084373Y-110884064D01*
X130084373Y-110884063D01*
X130086235Y-110878194D01*
X130103500Y-110724273D01*
X130103500Y-110099500D01*
X130123502Y-110031379D01*
X130177158Y-109984886D01*
X130229500Y-109973500D01*
X130602972Y-109973500D01*
X130671093Y-109993502D01*
X130692067Y-110010405D01*
X131874595Y-111192933D01*
X131908621Y-111255245D01*
X131911500Y-111282028D01*
X131911500Y-111488134D01*
X131918255Y-111550316D01*
X131969385Y-111686705D01*
X132056739Y-111803261D01*
X132173295Y-111890615D01*
X132309684Y-111941745D01*
X132371866Y-111948500D01*
X133668134Y-111948500D01*
X133730316Y-111941745D01*
X133866705Y-111890615D01*
X133983261Y-111803261D01*
X133988642Y-111796081D01*
X133994992Y-111789731D01*
X133997641Y-111792380D01*
X134040289Y-111760448D01*
X134084331Y-111752500D01*
X135189129Y-111752500D01*
X135206654Y-111753725D01*
X135230138Y-111757026D01*
X135239933Y-111757163D01*
X135247601Y-111757270D01*
X135247606Y-111757270D01*
X135251563Y-111757325D01*
X135259132Y-111756476D01*
X135271650Y-111755072D01*
X135279514Y-111754439D01*
X135519568Y-111742649D01*
X135519570Y-111742649D01*
X135522661Y-111742497D01*
X135737584Y-111710619D01*
X135788076Y-111703130D01*
X135788080Y-111703129D01*
X135791149Y-111702674D01*
X135794157Y-111701921D01*
X135794160Y-111701920D01*
X136051436Y-111637480D01*
X136051442Y-111637478D01*
X136054441Y-111636727D01*
X136310001Y-111545289D01*
X136555368Y-111429243D01*
X136558028Y-111427649D01*
X136558033Y-111427646D01*
X136785518Y-111291299D01*
X136785519Y-111291298D01*
X136788179Y-111289704D01*
X137006192Y-111128019D01*
X137024400Y-111111516D01*
X137131216Y-111014705D01*
X137135894Y-111010880D01*
X137137368Y-111009986D01*
X137145792Y-111002546D01*
X137154824Y-110993514D01*
X137159301Y-110989251D01*
X137168936Y-110980518D01*
X137177728Y-110973246D01*
X137189838Y-110964121D01*
X137189843Y-110964116D01*
X137193001Y-110961737D01*
X137195836Y-110958981D01*
X137195841Y-110958976D01*
X137204784Y-110950279D01*
X137208363Y-110946799D01*
X137230978Y-110918470D01*
X137240354Y-110907984D01*
X138114304Y-110034034D01*
X138176616Y-110000008D01*
X138194500Y-109997444D01*
X138391948Y-109983464D01*
X138391951Y-109983463D01*
X138397932Y-109983040D01*
X138606903Y-109927242D01*
X138801553Y-109832934D01*
X138974859Y-109703521D01*
X139120565Y-109543672D01*
X139233417Y-109359153D01*
X139309341Y-109156625D01*
X139345598Y-108943393D01*
X139340879Y-108727152D01*
X139326880Y-108662126D01*
X139296617Y-108521562D01*
X139295356Y-108515704D01*
X139210670Y-108316680D01*
X139124346Y-108188458D01*
X139092416Y-108141030D01*
X139092414Y-108141028D01*
X139089877Y-108137259D01*
X139086055Y-108133044D01*
X135511194Y-104558183D01*
X137406725Y-104558183D01*
X137407128Y-104565179D01*
X137423039Y-104841118D01*
X137423864Y-104845325D01*
X137423865Y-104845330D01*
X137435792Y-104906121D01*
X137477601Y-105119221D01*
X137569400Y-105387346D01*
X137696740Y-105640531D01*
X137857262Y-105874092D01*
X137860143Y-105877258D01*
X138022665Y-106055867D01*
X138047997Y-106083707D01*
X138051285Y-106086456D01*
X138262123Y-106262745D01*
X138262128Y-106262749D01*
X138265415Y-106265497D01*
X138354910Y-106321637D01*
X138501853Y-106413815D01*
X138501857Y-106413817D01*
X138505493Y-106416098D01*
X138509403Y-106417863D01*
X138509404Y-106417864D01*
X138759877Y-106530957D01*
X138759881Y-106530959D01*
X138763789Y-106532723D01*
X138767909Y-106533943D01*
X138767908Y-106533943D01*
X139031410Y-106611996D01*
X139031414Y-106611997D01*
X139035523Y-106613214D01*
X139039757Y-106613862D01*
X139039762Y-106613863D01*
X139285178Y-106651417D01*
X139315667Y-106656082D01*
X139459900Y-106658348D01*
X139594745Y-106660467D01*
X139594751Y-106660467D01*
X139599036Y-106660534D01*
X139603288Y-106660019D01*
X139603296Y-106660019D01*
X139821513Y-106633611D01*
X139880388Y-106626486D01*
X139884536Y-106625398D01*
X139884540Y-106625397D01*
X140150365Y-106555659D01*
X140154516Y-106554570D01*
X140158476Y-106552930D01*
X140158481Y-106552928D01*
X140299722Y-106494424D01*
X140416348Y-106446116D01*
X140457911Y-106421829D01*
X140657340Y-106305292D01*
X140657341Y-106305292D01*
X140661038Y-106303131D01*
X140884059Y-106128260D01*
X140954213Y-106055867D01*
X140988978Y-106019992D01*
X141081284Y-105924739D01*
X141249064Y-105696336D01*
X141251110Y-105692568D01*
X141382243Y-105451051D01*
X141382244Y-105451049D01*
X141384293Y-105447275D01*
X141458534Y-105250801D01*
X141482951Y-105186184D01*
X141482952Y-105186180D01*
X141484469Y-105182166D01*
X141517835Y-105036481D01*
X141546781Y-104910098D01*
X141546782Y-104910094D01*
X141547739Y-104905914D01*
X141550758Y-104872095D01*
X141572712Y-104626096D01*
X141572932Y-104623631D01*
X141573389Y-104580000D01*
X141554113Y-104297252D01*
X141496642Y-104019735D01*
X141490697Y-104002945D01*
X141403471Y-103756627D01*
X141402040Y-103752586D01*
X141272056Y-103500748D01*
X141258983Y-103482146D01*
X141190577Y-103384815D01*
X141109097Y-103268881D01*
X140978716Y-103128574D01*
X140919099Y-103064418D01*
X140919096Y-103064415D01*
X140916178Y-103061275D01*
X140696868Y-102881772D01*
X140455226Y-102733693D01*
X140440802Y-102727361D01*
X140199655Y-102621505D01*
X140195723Y-102619779D01*
X140176075Y-102614182D01*
X140146025Y-102605622D01*
X139923161Y-102542138D01*
X139918919Y-102541534D01*
X139918913Y-102541533D01*
X139646835Y-102502811D01*
X139642584Y-102502206D01*
X139493214Y-102501424D01*
X139363469Y-102500744D01*
X139363462Y-102500744D01*
X139359183Y-102500722D01*
X139354939Y-102501281D01*
X139354935Y-102501281D01*
X139231171Y-102517575D01*
X139078203Y-102537714D01*
X139074063Y-102538847D01*
X139074061Y-102538847D01*
X138808988Y-102611363D01*
X138804843Y-102612497D01*
X138544161Y-102723687D01*
X138300982Y-102869227D01*
X138297631Y-102871911D01*
X138297629Y-102871913D01*
X138278739Y-102887047D01*
X138079804Y-103046423D01*
X137939302Y-103194481D01*
X137907469Y-103228027D01*
X137884721Y-103251998D01*
X137719343Y-103482146D01*
X137586729Y-103732609D01*
X137489335Y-103998753D01*
X137428961Y-104275652D01*
X137406725Y-104558183D01*
X135511194Y-104558183D01*
X134691917Y-103738906D01*
X134680054Y-103725200D01*
X134673961Y-103717040D01*
X134673960Y-103717039D01*
X134671743Y-103714070D01*
X134630719Y-103670840D01*
X134613679Y-103656668D01*
X134609634Y-103653156D01*
X134546312Y-103595765D01*
X134401845Y-103464831D01*
X134399365Y-103462992D01*
X134399358Y-103462986D01*
X134157033Y-103283270D01*
X134157032Y-103283269D01*
X134154552Y-103281430D01*
X133890473Y-103123151D01*
X133695389Y-103030886D01*
X133614952Y-102992843D01*
X133614948Y-102992841D01*
X133612152Y-102991519D01*
X133322268Y-102887800D01*
X133302027Y-102882730D01*
X133026621Y-102813748D01*
X133026622Y-102813748D01*
X133023615Y-102812995D01*
X133020566Y-102812543D01*
X133020557Y-102812541D01*
X132722117Y-102768276D01*
X132722109Y-102768275D01*
X132719067Y-102767824D01*
X132715986Y-102767673D01*
X132715979Y-102767672D01*
X132541332Y-102759094D01*
X132531672Y-102757921D01*
X132531639Y-102758194D01*
X132527138Y-102757647D01*
X132522686Y-102756778D01*
X132517002Y-102756500D01*
X132502967Y-102756500D01*
X132484890Y-102755197D01*
X132474807Y-102753735D01*
X132474802Y-102753735D01*
X132471135Y-102753203D01*
X132411558Y-102751644D01*
X132407872Y-102751983D01*
X132407865Y-102751983D01*
X132364475Y-102755971D01*
X132352944Y-102756500D01*
X128092331Y-102756500D01*
X128074249Y-102755196D01*
X128064189Y-102753737D01*
X128064186Y-102753737D01*
X128060519Y-102753205D01*
X128039537Y-102752655D01*
X128004654Y-102751741D01*
X128004650Y-102751741D01*
X128000942Y-102751644D01*
X127994301Y-102752254D01*
X127978405Y-102753714D01*
X127973061Y-102754090D01*
X127696522Y-102767672D01*
X127696515Y-102767673D01*
X127693434Y-102767824D01*
X127690392Y-102768275D01*
X127690384Y-102768276D01*
X127391944Y-102812541D01*
X127391935Y-102812543D01*
X127388886Y-102812995D01*
X127385879Y-102813748D01*
X127385880Y-102813748D01*
X127110474Y-102882730D01*
X127090232Y-102887800D01*
X126955537Y-102935993D01*
X126803263Y-102990475D01*
X126803261Y-102990476D01*
X126800349Y-102991518D01*
X126797553Y-102992840D01*
X126797549Y-102992842D01*
X126695966Y-103040886D01*
X126522028Y-103123150D01*
X126257949Y-103281429D01*
X126255468Y-103283269D01*
X126013143Y-103462985D01*
X126013142Y-103462986D01*
X126010656Y-103464830D01*
X126008361Y-103466910D01*
X125878695Y-103584430D01*
X125871133Y-103590352D01*
X125871308Y-103590576D01*
X125867731Y-103593378D01*
X125863974Y-103595908D01*
X125859758Y-103599731D01*
X125849843Y-103609646D01*
X125836137Y-103621509D01*
X125827985Y-103627596D01*
X125827980Y-103627600D01*
X125825014Y-103629815D01*
X125781783Y-103670839D01*
X125779412Y-103673690D01*
X125779409Y-103673693D01*
X125751537Y-103707205D01*
X125743759Y-103715730D01*
X124587394Y-104872095D01*
X124525082Y-104906121D01*
X124498299Y-104909000D01*
X123078646Y-104909000D01*
X123076321Y-104909173D01*
X123076315Y-104909173D01*
X122889000Y-104923093D01*
X122888996Y-104923094D01*
X122884348Y-104923439D01*
X122879800Y-104924468D01*
X122879794Y-104924469D01*
X122693399Y-104966647D01*
X122629423Y-104981123D01*
X122625071Y-104982815D01*
X122625069Y-104982816D01*
X122390176Y-105074160D01*
X122390173Y-105074161D01*
X122385823Y-105075853D01*
X122381769Y-105078170D01*
X122381767Y-105078171D01*
X122312188Y-105117939D01*
X122158902Y-105205549D01*
X121953643Y-105367362D01*
X121774557Y-105557737D01*
X121625576Y-105772491D01*
X121623510Y-105776681D01*
X121623508Y-105776684D01*
X121550496Y-105924739D01*
X121509975Y-106006907D01*
X121430293Y-106255835D01*
X121388279Y-106513807D01*
X121387737Y-106555211D01*
X121385260Y-106744482D01*
X121384858Y-106775155D01*
X119908500Y-106775155D01*
X119908500Y-101690469D01*
X121817095Y-101690469D01*
X121817392Y-101695622D01*
X121817392Y-101695625D01*
X121827939Y-101878553D01*
X121830427Y-101921697D01*
X121831564Y-101926743D01*
X121831565Y-101926749D01*
X121863741Y-102069523D01*
X121881346Y-102147642D01*
X121883288Y-102152424D01*
X121883289Y-102152428D01*
X121966540Y-102357450D01*
X121968484Y-102362237D01*
X122089501Y-102559719D01*
X122241147Y-102734784D01*
X122353019Y-102827662D01*
X122403085Y-102869227D01*
X122419349Y-102882730D01*
X122619322Y-102999584D01*
X122835694Y-103082209D01*
X122840760Y-103083240D01*
X122840761Y-103083240D01*
X122893846Y-103094040D01*
X123062656Y-103128385D01*
X123193324Y-103133176D01*
X123288949Y-103136683D01*
X123288953Y-103136683D01*
X123294113Y-103136872D01*
X123299233Y-103136216D01*
X123299235Y-103136216D01*
X123372270Y-103126860D01*
X123523847Y-103107442D01*
X123528795Y-103105957D01*
X123528802Y-103105956D01*
X123740747Y-103042369D01*
X123745690Y-103040886D01*
X123750324Y-103038616D01*
X123949049Y-102941262D01*
X123949052Y-102941260D01*
X123953684Y-102938991D01*
X124142243Y-102804494D01*
X124306303Y-102641005D01*
X124310868Y-102634653D01*
X124369094Y-102553622D01*
X124441458Y-102452917D01*
X124446401Y-102442917D01*
X124541784Y-102249922D01*
X124541785Y-102249920D01*
X124544078Y-102245280D01*
X124611408Y-102023671D01*
X124641640Y-101794041D01*
X124641966Y-101780691D01*
X124643245Y-101728365D01*
X124643245Y-101728361D01*
X124643327Y-101725000D01*
X124626073Y-101515136D01*
X124624773Y-101499318D01*
X124624772Y-101499312D01*
X124624349Y-101494167D01*
X124567925Y-101269533D01*
X124561518Y-101254797D01*
X124477630Y-101061868D01*
X124477628Y-101061865D01*
X124475570Y-101057131D01*
X124349764Y-100862665D01*
X124346282Y-100858838D01*
X124259848Y-100763848D01*
X124228796Y-100700002D01*
X124237192Y-100629504D01*
X124282369Y-100574736D01*
X124308812Y-100561067D01*
X124368297Y-100538767D01*
X124376705Y-100535615D01*
X124493261Y-100448261D01*
X124580615Y-100331705D01*
X124631745Y-100195316D01*
X124638500Y-100133134D01*
X124638500Y-98236866D01*
X124631745Y-98174684D01*
X124580615Y-98038295D01*
X124493261Y-97921739D01*
X124376705Y-97834385D01*
X124240316Y-97783255D01*
X124178134Y-97776500D01*
X122281866Y-97776500D01*
X122219684Y-97783255D01*
X122083295Y-97834385D01*
X121966739Y-97921739D01*
X121879385Y-98038295D01*
X121828255Y-98174684D01*
X121821500Y-98236866D01*
X121821500Y-100133134D01*
X121828255Y-100195316D01*
X121879385Y-100331705D01*
X121966739Y-100448261D01*
X122083295Y-100535615D01*
X122091704Y-100538767D01*
X122091705Y-100538768D01*
X122151164Y-100561058D01*
X122207929Y-100603699D01*
X122232629Y-100670261D01*
X122217422Y-100739609D01*
X122198029Y-100766091D01*
X122131639Y-100835564D01*
X122128725Y-100839836D01*
X122128724Y-100839837D01*
X122062181Y-100937385D01*
X122001119Y-101026899D01*
X121903602Y-101236981D01*
X121841707Y-101460169D01*
X121817095Y-101690469D01*
X119908500Y-101690469D01*
X119908500Y-95600469D01*
X121817095Y-95600469D01*
X121817392Y-95605622D01*
X121817392Y-95605625D01*
X121830129Y-95826529D01*
X121830427Y-95831697D01*
X121831564Y-95836743D01*
X121831565Y-95836749D01*
X121863741Y-95979523D01*
X121881346Y-96057642D01*
X121883288Y-96062424D01*
X121883289Y-96062428D01*
X121966540Y-96267450D01*
X121968484Y-96272237D01*
X122089501Y-96469719D01*
X122241147Y-96644784D01*
X122419349Y-96792730D01*
X122619322Y-96909584D01*
X122624147Y-96911426D01*
X122624148Y-96911427D01*
X122659153Y-96924794D01*
X122835694Y-96992209D01*
X122840760Y-96993240D01*
X122840761Y-96993240D01*
X122893846Y-97004040D01*
X123062656Y-97038385D01*
X123193324Y-97043176D01*
X123288949Y-97046683D01*
X123288953Y-97046683D01*
X123294113Y-97046872D01*
X123299233Y-97046216D01*
X123299235Y-97046216D01*
X123372270Y-97036860D01*
X123523847Y-97017442D01*
X123528795Y-97015957D01*
X123528802Y-97015956D01*
X123740747Y-96952369D01*
X123745690Y-96950886D01*
X123750324Y-96948616D01*
X123949049Y-96851262D01*
X123949052Y-96851260D01*
X123953684Y-96848991D01*
X124142243Y-96714494D01*
X124306303Y-96551005D01*
X124378903Y-96449971D01*
X124434895Y-96406326D01*
X124481223Y-96397500D01*
X129290336Y-96397500D01*
X129306126Y-96398493D01*
X129335869Y-96402250D01*
X129342876Y-96401563D01*
X129342882Y-96401563D01*
X129356323Y-96400245D01*
X129378501Y-96400032D01*
X129491954Y-96408959D01*
X129530286Y-96411975D01*
X129549811Y-96415068D01*
X129626756Y-96433540D01*
X129719348Y-96455768D01*
X129738148Y-96461876D01*
X129899236Y-96528599D01*
X129916847Y-96537572D01*
X130065508Y-96628670D01*
X130081503Y-96640291D01*
X130164120Y-96710850D01*
X130171897Y-96717492D01*
X130189098Y-96732183D01*
X130201451Y-96745132D01*
X130201457Y-96745126D01*
X130206373Y-96750181D01*
X130210688Y-96755744D01*
X130216130Y-96760214D01*
X130243542Y-96782730D01*
X130252662Y-96791000D01*
X133762595Y-100300933D01*
X133796621Y-100363245D01*
X133799500Y-100390028D01*
X133799500Y-101345134D01*
X133806255Y-101407316D01*
X133857385Y-101543705D01*
X133944739Y-101660261D01*
X134061295Y-101747615D01*
X134197684Y-101798745D01*
X134259866Y-101805500D01*
X135880134Y-101805500D01*
X135942316Y-101798745D01*
X136078705Y-101747615D01*
X136195261Y-101660261D01*
X136282615Y-101543705D01*
X136333745Y-101407316D01*
X136340500Y-101345134D01*
X136340500Y-101336636D01*
X136360502Y-101268515D01*
X136414158Y-101222022D01*
X136484432Y-101211918D01*
X136549012Y-101241412D01*
X136569713Y-101264365D01*
X136628647Y-101348531D01*
X136633023Y-101354781D01*
X136790219Y-101511977D01*
X136794727Y-101515134D01*
X136794730Y-101515136D01*
X136823523Y-101535297D01*
X136972323Y-101639488D01*
X136977305Y-101641811D01*
X136977310Y-101641814D01*
X137168822Y-101731117D01*
X137173804Y-101733440D01*
X137179112Y-101734862D01*
X137179114Y-101734863D01*
X137226705Y-101747615D01*
X137388537Y-101790978D01*
X137610000Y-101810353D01*
X137831463Y-101790978D01*
X137993295Y-101747615D01*
X138040886Y-101734863D01*
X138040888Y-101734862D01*
X138046196Y-101733440D01*
X138051178Y-101731117D01*
X138242690Y-101641814D01*
X138242695Y-101641811D01*
X138247677Y-101639488D01*
X138396477Y-101535297D01*
X138425270Y-101515136D01*
X138425273Y-101515134D01*
X138429781Y-101511977D01*
X138586977Y-101354781D01*
X138591354Y-101348531D01*
X138711331Y-101177185D01*
X138711332Y-101177183D01*
X138714488Y-101172676D01*
X138716811Y-101167694D01*
X138716814Y-101167689D01*
X138765805Y-101062627D01*
X138812723Y-101009342D01*
X138881000Y-100989881D01*
X138948960Y-101010423D01*
X138994195Y-101062627D01*
X139043186Y-101167689D01*
X139043189Y-101167694D01*
X139045512Y-101172676D01*
X139048668Y-101177183D01*
X139048669Y-101177185D01*
X139168647Y-101348531D01*
X139173023Y-101354781D01*
X139330219Y-101511977D01*
X139334727Y-101515134D01*
X139334730Y-101515136D01*
X139363523Y-101535297D01*
X139512323Y-101639488D01*
X139517305Y-101641811D01*
X139517310Y-101641814D01*
X139708822Y-101731117D01*
X139713804Y-101733440D01*
X139719112Y-101734862D01*
X139719114Y-101734863D01*
X139766705Y-101747615D01*
X139928537Y-101790978D01*
X140150000Y-101810353D01*
X140371463Y-101790978D01*
X140533295Y-101747615D01*
X140580886Y-101734863D01*
X140580888Y-101734862D01*
X140586196Y-101733440D01*
X140591178Y-101731117D01*
X140782690Y-101641814D01*
X140782695Y-101641811D01*
X140787677Y-101639488D01*
X140936477Y-101535297D01*
X140965270Y-101515136D01*
X140965273Y-101515134D01*
X140969781Y-101511977D01*
X141126977Y-101354781D01*
X141131354Y-101348531D01*
X141251331Y-101177185D01*
X141251332Y-101177183D01*
X141254488Y-101172676D01*
X141256811Y-101167694D01*
X141256814Y-101167689D01*
X141305805Y-101062627D01*
X141352723Y-101009342D01*
X141421000Y-100989881D01*
X141488960Y-101010423D01*
X141534195Y-101062627D01*
X141583186Y-101167689D01*
X141583189Y-101167694D01*
X141585512Y-101172676D01*
X141588668Y-101177183D01*
X141588669Y-101177185D01*
X141708647Y-101348531D01*
X141713023Y-101354781D01*
X141870219Y-101511977D01*
X141874727Y-101515134D01*
X141874730Y-101515136D01*
X141903523Y-101535297D01*
X142052323Y-101639488D01*
X142057305Y-101641811D01*
X142057310Y-101641814D01*
X142248822Y-101731117D01*
X142253804Y-101733440D01*
X142259112Y-101734862D01*
X142259114Y-101734863D01*
X142306705Y-101747615D01*
X142468537Y-101790978D01*
X142690000Y-101810353D01*
X142911463Y-101790978D01*
X143073295Y-101747615D01*
X143120886Y-101734863D01*
X143120888Y-101734862D01*
X143126196Y-101733440D01*
X143131178Y-101731117D01*
X143322690Y-101641814D01*
X143322695Y-101641811D01*
X143327677Y-101639488D01*
X143476477Y-101535297D01*
X143505270Y-101515136D01*
X143505273Y-101515134D01*
X143509781Y-101511977D01*
X143666977Y-101354781D01*
X143671354Y-101348531D01*
X143791331Y-101177185D01*
X143791332Y-101177183D01*
X143794488Y-101172676D01*
X143796811Y-101167694D01*
X143796814Y-101167689D01*
X143886117Y-100976178D01*
X143886118Y-100976177D01*
X143888440Y-100971196D01*
X143945978Y-100756463D01*
X143965353Y-100535000D01*
X143945978Y-100313537D01*
X143897639Y-100133134D01*
X143889863Y-100104114D01*
X143889862Y-100104112D01*
X143888440Y-100098804D01*
X143877065Y-100074410D01*
X143796814Y-99902311D01*
X143796811Y-99902306D01*
X143794488Y-99897324D01*
X143776891Y-99872193D01*
X143670136Y-99719730D01*
X143670134Y-99719727D01*
X143666977Y-99715219D01*
X143509781Y-99558023D01*
X143505273Y-99554866D01*
X143505270Y-99554864D01*
X143429505Y-99501813D01*
X143327677Y-99430512D01*
X143322695Y-99428189D01*
X143322690Y-99428186D01*
X143131178Y-99338883D01*
X143131177Y-99338882D01*
X143126196Y-99336560D01*
X143120888Y-99335138D01*
X143120886Y-99335137D01*
X143055051Y-99317497D01*
X142911463Y-99279022D01*
X142690000Y-99259647D01*
X142468537Y-99279022D01*
X142324949Y-99317497D01*
X142259114Y-99335137D01*
X142259112Y-99335138D01*
X142253804Y-99336560D01*
X142248823Y-99338882D01*
X142248822Y-99338883D01*
X142057311Y-99428186D01*
X142057306Y-99428189D01*
X142052324Y-99430512D01*
X142047817Y-99433668D01*
X142047815Y-99433669D01*
X141874730Y-99554864D01*
X141874727Y-99554866D01*
X141870219Y-99558023D01*
X141713023Y-99715219D01*
X141709866Y-99719727D01*
X141709864Y-99719730D01*
X141603109Y-99872193D01*
X141585512Y-99897324D01*
X141583189Y-99902306D01*
X141583186Y-99902311D01*
X141534195Y-100007373D01*
X141487277Y-100060658D01*
X141419000Y-100080119D01*
X141351040Y-100059577D01*
X141305805Y-100007373D01*
X141256814Y-99902311D01*
X141256811Y-99902306D01*
X141254488Y-99897324D01*
X141236891Y-99872193D01*
X141130136Y-99719730D01*
X141130134Y-99719727D01*
X141126977Y-99715219D01*
X140969781Y-99558023D01*
X140965273Y-99554866D01*
X140965270Y-99554864D01*
X140889505Y-99501813D01*
X140787677Y-99430512D01*
X140782695Y-99428189D01*
X140782690Y-99428186D01*
X140591178Y-99338883D01*
X140591177Y-99338882D01*
X140586196Y-99336560D01*
X140580888Y-99335138D01*
X140580886Y-99335137D01*
X140515051Y-99317497D01*
X140371463Y-99279022D01*
X140150000Y-99259647D01*
X139928537Y-99279022D01*
X139784949Y-99317497D01*
X139719114Y-99335137D01*
X139719112Y-99335138D01*
X139713804Y-99336560D01*
X139708823Y-99338882D01*
X139708822Y-99338883D01*
X139517311Y-99428186D01*
X139517306Y-99428189D01*
X139512324Y-99430512D01*
X139507817Y-99433668D01*
X139507815Y-99433669D01*
X139334730Y-99554864D01*
X139334727Y-99554866D01*
X139330219Y-99558023D01*
X139173023Y-99715219D01*
X139169866Y-99719727D01*
X139169864Y-99719730D01*
X139063109Y-99872193D01*
X139045512Y-99897324D01*
X139043189Y-99902306D01*
X139043186Y-99902311D01*
X138994195Y-100007373D01*
X138947277Y-100060658D01*
X138879000Y-100080119D01*
X138811040Y-100059577D01*
X138765805Y-100007373D01*
X138716814Y-99902311D01*
X138716811Y-99902306D01*
X138714488Y-99897324D01*
X138696891Y-99872193D01*
X138590136Y-99719730D01*
X138590134Y-99719727D01*
X138586977Y-99715219D01*
X138429781Y-99558023D01*
X138425273Y-99554866D01*
X138425270Y-99554864D01*
X138349505Y-99501813D01*
X138247677Y-99430512D01*
X138242695Y-99428189D01*
X138242690Y-99428186D01*
X138051178Y-99338883D01*
X138051177Y-99338882D01*
X138046196Y-99336560D01*
X138040888Y-99335138D01*
X138040886Y-99335137D01*
X137975051Y-99317497D01*
X137831463Y-99279022D01*
X137610000Y-99259647D01*
X137388537Y-99279022D01*
X137244949Y-99317497D01*
X137179114Y-99335137D01*
X137179112Y-99335138D01*
X137173804Y-99336560D01*
X137168823Y-99338882D01*
X137168822Y-99338883D01*
X136977311Y-99428186D01*
X136977306Y-99428189D01*
X136972324Y-99430512D01*
X136967817Y-99433668D01*
X136967815Y-99433669D01*
X136794730Y-99554864D01*
X136794727Y-99554866D01*
X136790219Y-99558023D01*
X136633023Y-99715219D01*
X136629866Y-99719727D01*
X136629864Y-99719730D01*
X136569713Y-99805635D01*
X136514256Y-99849963D01*
X136443637Y-99857272D01*
X136380276Y-99825241D01*
X136344291Y-99764040D01*
X136340500Y-99733364D01*
X136340500Y-99724866D01*
X136333745Y-99662684D01*
X136282615Y-99526295D01*
X136241503Y-99471439D01*
X136216655Y-99404932D01*
X136231708Y-99335550D01*
X136281883Y-99285320D01*
X136340010Y-99270467D01*
X136340000Y-99270353D01*
X136340691Y-99270293D01*
X136340694Y-99270292D01*
X136561463Y-99250978D01*
X136747900Y-99201022D01*
X136770886Y-99194863D01*
X136770888Y-99194862D01*
X136776196Y-99193440D01*
X136782190Y-99190645D01*
X136972690Y-99101814D01*
X136972695Y-99101811D01*
X136977677Y-99099488D01*
X137042959Y-99053777D01*
X138185777Y-99053777D01*
X138195074Y-99065793D01*
X138238069Y-99095898D01*
X138247555Y-99101376D01*
X138438993Y-99190645D01*
X138449285Y-99194391D01*
X138653309Y-99249059D01*
X138664104Y-99250962D01*
X138874525Y-99269372D01*
X138885475Y-99269372D01*
X139095896Y-99250962D01*
X139106691Y-99249059D01*
X139310715Y-99194391D01*
X139321007Y-99190645D01*
X139512445Y-99101376D01*
X139521931Y-99095898D01*
X139565764Y-99065207D01*
X139574139Y-99054729D01*
X139573639Y-99053777D01*
X140725777Y-99053777D01*
X140735074Y-99065793D01*
X140778069Y-99095898D01*
X140787555Y-99101376D01*
X140978993Y-99190645D01*
X140989285Y-99194391D01*
X141193309Y-99249059D01*
X141204104Y-99250962D01*
X141414525Y-99269372D01*
X141425475Y-99269372D01*
X141635896Y-99250962D01*
X141646691Y-99249059D01*
X141850715Y-99194391D01*
X141861007Y-99190645D01*
X142052445Y-99101376D01*
X142061931Y-99095898D01*
X142105764Y-99065207D01*
X142114139Y-99054729D01*
X142107071Y-99041281D01*
X141432812Y-98367022D01*
X141418868Y-98359408D01*
X141417035Y-98359539D01*
X141410420Y-98363790D01*
X140732207Y-99042003D01*
X140725777Y-99053777D01*
X139573639Y-99053777D01*
X139567071Y-99041281D01*
X138892812Y-98367022D01*
X138878868Y-98359408D01*
X138877035Y-98359539D01*
X138870420Y-98363790D01*
X138192207Y-99042003D01*
X138185777Y-99053777D01*
X137042959Y-99053777D01*
X137109626Y-99007096D01*
X137155270Y-98975136D01*
X137155273Y-98975134D01*
X137159781Y-98971977D01*
X137316977Y-98814781D01*
X137376738Y-98729434D01*
X137441331Y-98637185D01*
X137441332Y-98637183D01*
X137444488Y-98632676D01*
X137446811Y-98627694D01*
X137446814Y-98627689D01*
X137496081Y-98522035D01*
X137542999Y-98468750D01*
X137611276Y-98449289D01*
X137679236Y-98469831D01*
X137724471Y-98522035D01*
X137773623Y-98627441D01*
X137779103Y-98636932D01*
X137809794Y-98680765D01*
X137820271Y-98689140D01*
X137833718Y-98682072D01*
X138507978Y-98007812D01*
X138514356Y-97996132D01*
X139244408Y-97996132D01*
X139244539Y-97997965D01*
X139248790Y-98004580D01*
X139927003Y-98682793D01*
X139938777Y-98689223D01*
X139950793Y-98679926D01*
X139980897Y-98636932D01*
X139986377Y-98627441D01*
X140035805Y-98521443D01*
X140082722Y-98468158D01*
X140151000Y-98448697D01*
X140218960Y-98469239D01*
X140264195Y-98521443D01*
X140313623Y-98627441D01*
X140319103Y-98636932D01*
X140349794Y-98680765D01*
X140360271Y-98689140D01*
X140373718Y-98682072D01*
X141047978Y-98007812D01*
X141055592Y-97993868D01*
X141055461Y-97992035D01*
X141051210Y-97985420D01*
X140372997Y-97307207D01*
X140361223Y-97300777D01*
X140349207Y-97310074D01*
X140319103Y-97353068D01*
X140313623Y-97362559D01*
X140264195Y-97468557D01*
X140217278Y-97521842D01*
X140149000Y-97541303D01*
X140081040Y-97520761D01*
X140035805Y-97468557D01*
X139986377Y-97362559D01*
X139980897Y-97353068D01*
X139950206Y-97309235D01*
X139939729Y-97300860D01*
X139926282Y-97307928D01*
X139252022Y-97982188D01*
X139244408Y-97996132D01*
X138514356Y-97996132D01*
X138515592Y-97993868D01*
X138515461Y-97992035D01*
X138511210Y-97985420D01*
X137832997Y-97307207D01*
X137821223Y-97300777D01*
X137809207Y-97310074D01*
X137779103Y-97353068D01*
X137773623Y-97362559D01*
X137724471Y-97467965D01*
X137677553Y-97521250D01*
X137609276Y-97540711D01*
X137541316Y-97520169D01*
X137496081Y-97467965D01*
X137446814Y-97362311D01*
X137446811Y-97362306D01*
X137444488Y-97357324D01*
X137441331Y-97352815D01*
X137320136Y-97179730D01*
X137320134Y-97179727D01*
X137316977Y-97175219D01*
X137159781Y-97018023D01*
X137155273Y-97014866D01*
X137155270Y-97014864D01*
X137063900Y-96950886D01*
X137041599Y-96935271D01*
X138185860Y-96935271D01*
X138192928Y-96948718D01*
X138867188Y-97622978D01*
X138881132Y-97630592D01*
X138882965Y-97630461D01*
X138889580Y-97626210D01*
X139567793Y-96947997D01*
X139574223Y-96936223D01*
X139573486Y-96935271D01*
X140725860Y-96935271D01*
X140732928Y-96948718D01*
X141407188Y-97622978D01*
X141421132Y-97630592D01*
X141422965Y-97630461D01*
X141429580Y-97626210D01*
X142107793Y-96947997D01*
X142114223Y-96936223D01*
X142104926Y-96924207D01*
X142061931Y-96894102D01*
X142052445Y-96888624D01*
X141861007Y-96799355D01*
X141850715Y-96795609D01*
X141646691Y-96740941D01*
X141635896Y-96739038D01*
X141425475Y-96720628D01*
X141414525Y-96720628D01*
X141204104Y-96739038D01*
X141193309Y-96740941D01*
X140989285Y-96795609D01*
X140978993Y-96799355D01*
X140787559Y-96888623D01*
X140778068Y-96894103D01*
X140734235Y-96924794D01*
X140725860Y-96935271D01*
X139573486Y-96935271D01*
X139564926Y-96924207D01*
X139521931Y-96894102D01*
X139512445Y-96888624D01*
X139321007Y-96799355D01*
X139310715Y-96795609D01*
X139106691Y-96740941D01*
X139095896Y-96739038D01*
X138885475Y-96720628D01*
X138874525Y-96720628D01*
X138664104Y-96739038D01*
X138653309Y-96740941D01*
X138449285Y-96795609D01*
X138438993Y-96799355D01*
X138247559Y-96888623D01*
X138238068Y-96894103D01*
X138194235Y-96924794D01*
X138185860Y-96935271D01*
X137041599Y-96935271D01*
X136977677Y-96890512D01*
X136972695Y-96888189D01*
X136972690Y-96888186D01*
X136781178Y-96798883D01*
X136781177Y-96798882D01*
X136776196Y-96796560D01*
X136770888Y-96795138D01*
X136770886Y-96795137D01*
X136705051Y-96777497D01*
X136561463Y-96739022D01*
X136340000Y-96719647D01*
X136118537Y-96739022D01*
X135974949Y-96777497D01*
X135909114Y-96795137D01*
X135909112Y-96795138D01*
X135903804Y-96796560D01*
X135898823Y-96798882D01*
X135898822Y-96798883D01*
X135707311Y-96888186D01*
X135707306Y-96888189D01*
X135702324Y-96890512D01*
X135697817Y-96893668D01*
X135697815Y-96893669D01*
X135524730Y-97014864D01*
X135524727Y-97014866D01*
X135520219Y-97018023D01*
X135363023Y-97175219D01*
X135359866Y-97179727D01*
X135359864Y-97179730D01*
X135238669Y-97352815D01*
X135235512Y-97357324D01*
X135233189Y-97362306D01*
X135233186Y-97362311D01*
X135183919Y-97467965D01*
X135141560Y-97558804D01*
X135084022Y-97773537D01*
X135064647Y-97995000D01*
X135084022Y-98216463D01*
X135141560Y-98431196D01*
X135143882Y-98436177D01*
X135143883Y-98436178D01*
X135233186Y-98627689D01*
X135233189Y-98627694D01*
X135235512Y-98632676D01*
X135238668Y-98637183D01*
X135238669Y-98637185D01*
X135303263Y-98729434D01*
X135363023Y-98814781D01*
X135520219Y-98971977D01*
X135524727Y-98975134D01*
X135524730Y-98975136D01*
X135610635Y-99035287D01*
X135654963Y-99090744D01*
X135662272Y-99161363D01*
X135630241Y-99224724D01*
X135569040Y-99260709D01*
X135538364Y-99264500D01*
X134935028Y-99264500D01*
X134866907Y-99244498D01*
X134845933Y-99227595D01*
X131344108Y-95725770D01*
X131332575Y-95712504D01*
X131320679Y-95696717D01*
X131320675Y-95696712D01*
X131318301Y-95693562D01*
X131303363Y-95678201D01*
X131287781Y-95665762D01*
X131281800Y-95660673D01*
X131215374Y-95600469D01*
X154327095Y-95600469D01*
X154327392Y-95605622D01*
X154327392Y-95605625D01*
X154340129Y-95826529D01*
X154340427Y-95831697D01*
X154341564Y-95836743D01*
X154341565Y-95836749D01*
X154373741Y-95979523D01*
X154391346Y-96057642D01*
X154393288Y-96062424D01*
X154393289Y-96062428D01*
X154476540Y-96267450D01*
X154478484Y-96272237D01*
X154599501Y-96469719D01*
X154751147Y-96644784D01*
X154929349Y-96792730D01*
X155129322Y-96909584D01*
X155134147Y-96911426D01*
X155134148Y-96911427D01*
X155169153Y-96924794D01*
X155345694Y-96992209D01*
X155350760Y-96993240D01*
X155350761Y-96993240D01*
X155403846Y-97004040D01*
X155572656Y-97038385D01*
X155703324Y-97043176D01*
X155798949Y-97046683D01*
X155798953Y-97046683D01*
X155804113Y-97046872D01*
X155809233Y-97046216D01*
X155809235Y-97046216D01*
X155882270Y-97036860D01*
X156033847Y-97017442D01*
X156038795Y-97015957D01*
X156038802Y-97015956D01*
X156250747Y-96952369D01*
X156255690Y-96950886D01*
X156260324Y-96948616D01*
X156459049Y-96851262D01*
X156459052Y-96851260D01*
X156463684Y-96848991D01*
X156652243Y-96714494D01*
X156816303Y-96551005D01*
X156951458Y-96362917D01*
X156998641Y-96267450D01*
X157051784Y-96159922D01*
X157051785Y-96159920D01*
X157054078Y-96155280D01*
X157121408Y-95933671D01*
X157151640Y-95704041D01*
X157152202Y-95681038D01*
X157153245Y-95638365D01*
X157153245Y-95638361D01*
X157153327Y-95635000D01*
X157141828Y-95495138D01*
X157134773Y-95409318D01*
X157134772Y-95409312D01*
X157134349Y-95404167D01*
X157106137Y-95291850D01*
X157079184Y-95184544D01*
X157079183Y-95184540D01*
X157077925Y-95179533D01*
X157075866Y-95174797D01*
X156987630Y-94971868D01*
X156987628Y-94971865D01*
X156985570Y-94967131D01*
X156859764Y-94772665D01*
X156769848Y-94673848D01*
X156738796Y-94610002D01*
X156747192Y-94539504D01*
X156792369Y-94484736D01*
X156818812Y-94471067D01*
X156878297Y-94448767D01*
X156886705Y-94445615D01*
X157003261Y-94358261D01*
X157090615Y-94241705D01*
X157141745Y-94105316D01*
X157148500Y-94043134D01*
X157148500Y-92146866D01*
X157141745Y-92084684D01*
X157090615Y-91948295D01*
X157003261Y-91831739D01*
X156886705Y-91744385D01*
X156750316Y-91693255D01*
X156688134Y-91686500D01*
X154791866Y-91686500D01*
X154729684Y-91693255D01*
X154593295Y-91744385D01*
X154476739Y-91831739D01*
X154389385Y-91948295D01*
X154338255Y-92084684D01*
X154331500Y-92146866D01*
X154331500Y-94043134D01*
X154338255Y-94105316D01*
X154389385Y-94241705D01*
X154476739Y-94358261D01*
X154593295Y-94445615D01*
X154601704Y-94448767D01*
X154601705Y-94448768D01*
X154661164Y-94471058D01*
X154717929Y-94513699D01*
X154742629Y-94580261D01*
X154727422Y-94649609D01*
X154708029Y-94676091D01*
X154641639Y-94745564D01*
X154638725Y-94749836D01*
X154638724Y-94749837D01*
X154623152Y-94772665D01*
X154511119Y-94936899D01*
X154413602Y-95146981D01*
X154351707Y-95370169D01*
X154327095Y-95600469D01*
X131215374Y-95600469D01*
X131101192Y-95496981D01*
X130883179Y-95335296D01*
X130880518Y-95333701D01*
X130653033Y-95197354D01*
X130653028Y-95197351D01*
X130650368Y-95195757D01*
X130405001Y-95079711D01*
X130149441Y-94988273D01*
X130146442Y-94987522D01*
X130146436Y-94987520D01*
X129889160Y-94923080D01*
X129889157Y-94923079D01*
X129886149Y-94922326D01*
X129883080Y-94921871D01*
X129883076Y-94921870D01*
X129793232Y-94908544D01*
X129617661Y-94882503D01*
X129614570Y-94882351D01*
X129614568Y-94882351D01*
X129510366Y-94877233D01*
X129449317Y-94874235D01*
X129443196Y-94873621D01*
X129441461Y-94873196D01*
X129435852Y-94872848D01*
X129432182Y-94872620D01*
X129432172Y-94872620D01*
X129430243Y-94872500D01*
X129417082Y-94872500D01*
X129410904Y-94872348D01*
X129402817Y-94871951D01*
X129398483Y-94871738D01*
X129387133Y-94870664D01*
X129371917Y-94868526D01*
X129371915Y-94868526D01*
X129367988Y-94867974D01*
X129357110Y-94867822D01*
X129350524Y-94867730D01*
X129350520Y-94867730D01*
X129346563Y-94867675D01*
X129342636Y-94868116D01*
X129342627Y-94868116D01*
X129310550Y-94871715D01*
X129296503Y-94872500D01*
X124482905Y-94872500D01*
X124414784Y-94852498D01*
X124377113Y-94814940D01*
X124352574Y-94777009D01*
X124349764Y-94772665D01*
X124259848Y-94673848D01*
X124228796Y-94610002D01*
X124237192Y-94539504D01*
X124282369Y-94484736D01*
X124308812Y-94471067D01*
X124368297Y-94448767D01*
X124376705Y-94445615D01*
X124493261Y-94358261D01*
X124580615Y-94241705D01*
X124631745Y-94105316D01*
X124638500Y-94043134D01*
X124638500Y-92146866D01*
X124631745Y-92084684D01*
X124580615Y-91948295D01*
X124493261Y-91831739D01*
X124478732Y-91820850D01*
X131660725Y-91820850D01*
X131661284Y-91825094D01*
X131661284Y-91825098D01*
X131678210Y-91953659D01*
X131699140Y-92112640D01*
X131776800Y-92396517D01*
X131778485Y-92400467D01*
X131890586Y-92663286D01*
X131890590Y-92663293D01*
X131892268Y-92667228D01*
X132043408Y-92919764D01*
X132227422Y-93149451D01*
X132230524Y-93152395D01*
X132230528Y-93152399D01*
X132247985Y-93168965D01*
X132440905Y-93352039D01*
X132679908Y-93523780D01*
X132940007Y-93661496D01*
X133216390Y-93762638D01*
X133503943Y-93825334D01*
X133536519Y-93827898D01*
X133732309Y-93843307D01*
X133732318Y-93843307D01*
X133734766Y-93843500D01*
X133893990Y-93843500D01*
X133896126Y-93843354D01*
X133896137Y-93843354D01*
X134109350Y-93828819D01*
X134109356Y-93828818D01*
X134113627Y-93828527D01*
X134117822Y-93827658D01*
X134117824Y-93827658D01*
X134257723Y-93798686D01*
X134401820Y-93768845D01*
X134679247Y-93670603D01*
X134940774Y-93535618D01*
X134944275Y-93533157D01*
X134944279Y-93533155D01*
X135178052Y-93368856D01*
X135178053Y-93368855D01*
X135181562Y-93366389D01*
X135397156Y-93166048D01*
X135410741Y-93149451D01*
X135580849Y-92941618D01*
X135583565Y-92938300D01*
X135737340Y-92687361D01*
X135739068Y-92683425D01*
X135853913Y-92421802D01*
X135853914Y-92421798D01*
X135855637Y-92417874D01*
X135936265Y-92134826D01*
X135940029Y-92108384D01*
X135977129Y-91847705D01*
X135977734Y-91843454D01*
X135977852Y-91820850D01*
X142960725Y-91820850D01*
X142961284Y-91825094D01*
X142961284Y-91825098D01*
X142978210Y-91953659D01*
X142999140Y-92112640D01*
X143076800Y-92396517D01*
X143078485Y-92400467D01*
X143190586Y-92663286D01*
X143190590Y-92663293D01*
X143192268Y-92667228D01*
X143343408Y-92919764D01*
X143527422Y-93149451D01*
X143530524Y-93152395D01*
X143530528Y-93152399D01*
X143547985Y-93168965D01*
X143740905Y-93352039D01*
X143979908Y-93523780D01*
X144240007Y-93661496D01*
X144516390Y-93762638D01*
X144803943Y-93825334D01*
X144836519Y-93827898D01*
X145032309Y-93843307D01*
X145032318Y-93843307D01*
X145034766Y-93843500D01*
X145193990Y-93843500D01*
X145196126Y-93843354D01*
X145196137Y-93843354D01*
X145409350Y-93828819D01*
X145409356Y-93828818D01*
X145413627Y-93828527D01*
X145417822Y-93827658D01*
X145417824Y-93827658D01*
X145557723Y-93798686D01*
X145701820Y-93768845D01*
X145979247Y-93670603D01*
X146240774Y-93535618D01*
X146244275Y-93533157D01*
X146244279Y-93533155D01*
X146478052Y-93368856D01*
X146478053Y-93368855D01*
X146481562Y-93366389D01*
X146697156Y-93166048D01*
X146710741Y-93149451D01*
X146880849Y-92941618D01*
X146883565Y-92938300D01*
X147037340Y-92687361D01*
X147039068Y-92683425D01*
X147153913Y-92421802D01*
X147153914Y-92421798D01*
X147155637Y-92417874D01*
X147236265Y-92134826D01*
X147240029Y-92108384D01*
X147277129Y-91847705D01*
X147277734Y-91843454D01*
X147279275Y-91549150D01*
X147275740Y-91522295D01*
X147241420Y-91261616D01*
X147240860Y-91257360D01*
X147163200Y-90973483D01*
X147135186Y-90907806D01*
X147049414Y-90706714D01*
X147049410Y-90706707D01*
X147047732Y-90702772D01*
X146896592Y-90450236D01*
X146712578Y-90220549D01*
X146709476Y-90217605D01*
X146709472Y-90217601D01*
X146502204Y-90020911D01*
X146502201Y-90020909D01*
X146499095Y-90017961D01*
X146260092Y-89846220D01*
X145999993Y-89708504D01*
X145723610Y-89607362D01*
X145436057Y-89544666D01*
X145395486Y-89541473D01*
X145207691Y-89526693D01*
X145207682Y-89526693D01*
X145205234Y-89526500D01*
X145046010Y-89526500D01*
X145043874Y-89526646D01*
X145043863Y-89526646D01*
X144830650Y-89541181D01*
X144830644Y-89541182D01*
X144826373Y-89541473D01*
X144822178Y-89542342D01*
X144822176Y-89542342D01*
X144682277Y-89571314D01*
X144538180Y-89601155D01*
X144260753Y-89699397D01*
X143999226Y-89834382D01*
X143995725Y-89836843D01*
X143995721Y-89836845D01*
X143761948Y-90001144D01*
X143758438Y-90003611D01*
X143542844Y-90203952D01*
X143540130Y-90207268D01*
X143540128Y-90207270D01*
X143526524Y-90223891D01*
X143356435Y-90431700D01*
X143202660Y-90682639D01*
X143200933Y-90686572D01*
X143200932Y-90686575D01*
X143195438Y-90699092D01*
X143084363Y-90952126D01*
X143003735Y-91235174D01*
X143003131Y-91239416D01*
X143003130Y-91239422D01*
X142962871Y-91522295D01*
X142962266Y-91526546D01*
X142960725Y-91820850D01*
X135977852Y-91820850D01*
X135979275Y-91549150D01*
X135975740Y-91522295D01*
X135941420Y-91261616D01*
X135940860Y-91257360D01*
X135863200Y-90973483D01*
X135835186Y-90907806D01*
X135749414Y-90706714D01*
X135749410Y-90706707D01*
X135747732Y-90702772D01*
X135596592Y-90450236D01*
X135412578Y-90220549D01*
X135409476Y-90217605D01*
X135409472Y-90217601D01*
X135202204Y-90020911D01*
X135202201Y-90020909D01*
X135199095Y-90017961D01*
X134960092Y-89846220D01*
X134699993Y-89708504D01*
X134423610Y-89607362D01*
X134136057Y-89544666D01*
X134095486Y-89541473D01*
X133907691Y-89526693D01*
X133907682Y-89526693D01*
X133905234Y-89526500D01*
X133746010Y-89526500D01*
X133743874Y-89526646D01*
X133743863Y-89526646D01*
X133530650Y-89541181D01*
X133530644Y-89541182D01*
X133526373Y-89541473D01*
X133522178Y-89542342D01*
X133522176Y-89542342D01*
X133382277Y-89571314D01*
X133238180Y-89601155D01*
X132960753Y-89699397D01*
X132699226Y-89834382D01*
X132695725Y-89836843D01*
X132695721Y-89836845D01*
X132461948Y-90001144D01*
X132458438Y-90003611D01*
X132242844Y-90203952D01*
X132240130Y-90207268D01*
X132240128Y-90207270D01*
X132226524Y-90223891D01*
X132056435Y-90431700D01*
X131902660Y-90682639D01*
X131900933Y-90686572D01*
X131900932Y-90686575D01*
X131895438Y-90699092D01*
X131784363Y-90952126D01*
X131703735Y-91235174D01*
X131703131Y-91239416D01*
X131703130Y-91239422D01*
X131662871Y-91522295D01*
X131662266Y-91526546D01*
X131660725Y-91820850D01*
X124478732Y-91820850D01*
X124376705Y-91744385D01*
X124240316Y-91693255D01*
X124178134Y-91686500D01*
X122281866Y-91686500D01*
X122219684Y-91693255D01*
X122083295Y-91744385D01*
X121966739Y-91831739D01*
X121879385Y-91948295D01*
X121828255Y-92084684D01*
X121821500Y-92146866D01*
X121821500Y-94043134D01*
X121828255Y-94105316D01*
X121879385Y-94241705D01*
X121966739Y-94358261D01*
X122083295Y-94445615D01*
X122091704Y-94448767D01*
X122091705Y-94448768D01*
X122151164Y-94471058D01*
X122207929Y-94513699D01*
X122232629Y-94580261D01*
X122217422Y-94649609D01*
X122198029Y-94676091D01*
X122131639Y-94745564D01*
X122128725Y-94749836D01*
X122128724Y-94749837D01*
X122113152Y-94772665D01*
X122001119Y-94936899D01*
X121903602Y-95146981D01*
X121841707Y-95370169D01*
X121817095Y-95600469D01*
X119908500Y-95600469D01*
X119908500Y-87064500D01*
X119928502Y-86996379D01*
X119982158Y-86949886D01*
X120034500Y-86938500D01*
X158955500Y-86938500D01*
X159023621Y-86958502D01*
G37*
G04 #@! TD.AperFunction*
M02*
