G04 #@! TF.GenerationSoftware,KiCad,Pcbnew,(6.0.6-0)*
G04 #@! TF.CreationDate,2022-11-29T15:01:30-05:00*
G04 #@! TF.ProjectId,Philips CD-i 450 Power Adapter,5068696c-6970-4732-9043-442d69203435,1*
G04 #@! TF.SameCoordinates,Original*
G04 #@! TF.FileFunction,Soldermask,Top*
G04 #@! TF.FilePolarity,Negative*
%FSLAX46Y46*%
G04 Gerber Fmt 4.6, Leading zero omitted, Abs format (unit mm)*
G04 Created by KiCad (PCBNEW (6.0.6-0)) date 2022-11-29 15:01:30*
%MOMM*%
%LPD*%
G01*
G04 APERTURE LIST*
G04 Aperture macros list*
%AMRoundRect*
0 Rectangle with rounded corners*
0 $1 Rounding radius*
0 $2 $3 $4 $5 $6 $7 $8 $9 X,Y pos of 4 corners*
0 Add a 4 corners polygon primitive as box body*
4,1,4,$2,$3,$4,$5,$6,$7,$8,$9,$2,$3,0*
0 Add four circle primitives for the rounded corners*
1,1,$1+$1,$2,$3*
1,1,$1+$1,$4,$5*
1,1,$1+$1,$6,$7*
1,1,$1+$1,$8,$9*
0 Add four rect primitives between the rounded corners*
20,1,$1+$1,$2,$3,$4,$5,0*
20,1,$1+$1,$4,$5,$6,$7,0*
20,1,$1+$1,$6,$7,$8,$9,0*
20,1,$1+$1,$8,$9,$2,$3,0*%
G04 Aperture macros list end*
%ADD10RoundRect,0.050800X-0.600000X-0.600000X0.600000X-0.600000X0.600000X0.600000X-0.600000X0.600000X0*%
%ADD11C,1.301600*%
%ADD12RoundRect,0.300800X-0.450000X0.350000X-0.450000X-0.350000X0.450000X-0.350000X0.450000X0.350000X0*%
%ADD13RoundRect,0.050800X-0.900000X0.900000X-0.900000X-0.900000X0.900000X-0.900000X0.900000X0.900000X0*%
%ADD14C,1.901600*%
%ADD15C,3.300000*%
%ADD16RoundRect,0.050800X-0.762000X-0.762000X0.762000X-0.762000X0.762000X0.762000X-0.762000X0.762000X0*%
%ADD17C,1.625600*%
%ADD18O,1.101600X3.101600*%
%ADD19O,5.101600X2.601600*%
%ADD20O,4.601600X2.351600*%
%ADD21RoundRect,0.300800X0.450000X-0.350000X0.450000X0.350000X-0.450000X0.350000X-0.450000X-0.350000X0*%
G04 APERTURE END LIST*
D10*
X130580245Y-108865000D03*
D11*
X130580245Y-116465000D03*
X138205245Y-108865000D03*
X138205245Y-116465000D03*
X143305245Y-108865000D03*
X143305245Y-116465000D03*
X148355245Y-108865000D03*
X148380245Y-116465000D03*
D12*
X128560000Y-99180000D03*
X128560000Y-101180000D03*
D13*
X123230000Y-99185000D03*
D14*
X123230000Y-101725000D03*
D15*
X133820000Y-91685000D03*
X145120000Y-91685000D03*
D16*
X135070000Y-100535000D03*
D17*
X136340000Y-97995000D03*
X137610000Y-100535000D03*
X138880000Y-97995000D03*
X140150000Y-100535000D03*
X141420000Y-97995000D03*
X142690000Y-100535000D03*
X143960000Y-97995000D03*
D18*
X159275000Y-109677500D03*
D19*
X154575000Y-106677500D03*
D20*
X154575000Y-112677500D03*
D18*
X129095000Y-109667500D03*
D19*
X124395000Y-106667500D03*
D20*
X124395000Y-112667500D03*
D21*
X150490000Y-95630000D03*
X150490000Y-93630000D03*
D13*
X155740000Y-93095000D03*
D14*
X155740000Y-95635000D03*
D21*
X150490000Y-101710000D03*
X150490000Y-99710000D03*
D12*
X128560000Y-93090000D03*
X128560000Y-95090000D03*
D13*
X123230000Y-93095000D03*
D14*
X123230000Y-95635000D03*
D13*
X155730000Y-99175000D03*
D14*
X155730000Y-101715000D03*
M02*
