M48
; DRILL file {KiCad (6.0.6-0)} date Tuesday, 29 November 2022 at 15:01:31
; FORMAT={-:-/ absolute / inch / decimal}
; #@! TF.CreationDate,2022-11-29T15:01:31-05:00
; #@! TF.GenerationSoftware,Kicad,Pcbnew,(6.0.6-0)
; #@! TF.FileFunction,MixedPlating,1,2
FMAT,2
INCH
; #@! TA.AperFunction,Plated,PTH,ViaDrill
T1C0.0118
; #@! TA.AperFunction,Plated,PTH,ComponentDrill
T2C0.0295
; #@! TA.AperFunction,Plated,PTH,ComponentDrill
T3C0.0354
; #@! TA.AperFunction,Plated,PTH,ComponentDrill
T4C0.0394
; #@! TA.AperFunction,NonPlated,NPTH,ComponentDrill
T5C0.0394
; #@! TA.AperFunction,NonPlated,NPTH,ComponentDrill
T6C0.1299
%
G90
G05
T1
X5.3016Y-4.5531
X5.937Y-4.2193
T2
X5.141Y-4.286
X5.141Y-4.5852
X5.4412Y-4.286
X5.4412Y-4.5852
X5.6419Y-4.286
X5.6419Y-4.5852
X5.8408Y-4.286
X5.8417Y-4.5852
T3
X4.8516Y-3.6652
X4.8516Y-3.7652
X4.8516Y-3.9049
X4.8516Y-4.0049
X5.3177Y-3.9581
X5.3677Y-3.8581
X5.4177Y-3.9581
X5.4677Y-3.8581
X5.5177Y-3.9581
X5.5677Y-3.8581
X5.6177Y-3.9581
X5.6677Y-3.8581
X6.1311Y-3.9045
X6.1311Y-4.0045
X6.1315Y-3.6652
X6.1315Y-3.7652
T6
X5.2685Y-3.6096
X5.7134Y-3.6096
T4
G00X4.9467Y-4.1995
M15
G01X4.8482Y-4.1995
M16
G05
G00X4.9368Y-4.4357
M15
G01X4.8581Y-4.4357
M16
G05
G00X6.1348Y-4.1999
M15
G01X6.0364Y-4.1999
M16
G05
G00X6.125Y-4.4361
M15
G01X6.0463Y-4.4361
M16
G05
T5
G00X5.0825Y-4.2782
M15
G01X5.0825Y-4.357
M16
G05
G00X6.2707Y-4.2786
M15
G01X6.2707Y-4.3574
M16
G05
T0
M30
