G04 #@! TF.GenerationSoftware,KiCad,Pcbnew,(6.0.6-0)*
G04 #@! TF.CreationDate,2022-11-29T15:01:29-05:00*
G04 #@! TF.ProjectId,Philips CD-i 450 Power Adapter,5068696c-6970-4732-9043-442d69203435,1*
G04 #@! TF.SameCoordinates,Original*
G04 #@! TF.FileFunction,Legend,Top*
G04 #@! TF.FilePolarity,Positive*
%FSLAX46Y46*%
G04 Gerber Fmt 4.6, Leading zero omitted, Abs format (unit mm)*
G04 Created by KiCad (PCBNEW (6.0.6-0)) date 2022-11-29 15:01:29*
%MOMM*%
%LPD*%
G01*
G04 APERTURE LIST*
G04 Aperture macros list*
%AMRoundRect*
0 Rectangle with rounded corners*
0 $1 Rounding radius*
0 $2 $3 $4 $5 $6 $7 $8 $9 X,Y pos of 4 corners*
0 Add a 4 corners polygon primitive as box body*
4,1,4,$2,$3,$4,$5,$6,$7,$8,$9,$2,$3,0*
0 Add four circle primitives for the rounded corners*
1,1,$1+$1,$2,$3*
1,1,$1+$1,$4,$5*
1,1,$1+$1,$6,$7*
1,1,$1+$1,$8,$9*
0 Add four rect primitives between the rounded corners*
20,1,$1+$1,$2,$3,$4,$5,0*
20,1,$1+$1,$4,$5,$6,$7,0*
20,1,$1+$1,$6,$7,$8,$9,0*
20,1,$1+$1,$8,$9,$2,$3,0*%
G04 Aperture macros list end*
%ADD10C,0.127000*%
%ADD11C,0.250000*%
%ADD12C,0.150000*%
%ADD13C,0.120000*%
%ADD14C,0.500000*%
%ADD15C,0.400000*%
%ADD16RoundRect,0.050800X-0.600000X-0.600000X0.600000X-0.600000X0.600000X0.600000X-0.600000X0.600000X0*%
%ADD17C,1.301600*%
%ADD18RoundRect,0.300800X-0.450000X0.350000X-0.450000X-0.350000X0.450000X-0.350000X0.450000X0.350000X0*%
%ADD19RoundRect,0.050800X-0.900000X0.900000X-0.900000X-0.900000X0.900000X-0.900000X0.900000X0.900000X0*%
%ADD20C,1.901600*%
%ADD21C,3.300000*%
%ADD22RoundRect,0.050800X-0.762000X-0.762000X0.762000X-0.762000X0.762000X0.762000X-0.762000X0.762000X0*%
%ADD23C,1.625600*%
%ADD24O,1.101600X3.101600*%
%ADD25O,5.101600X2.601600*%
%ADD26O,4.601600X2.351600*%
%ADD27RoundRect,0.300800X0.450000X-0.350000X0.450000X0.350000X-0.450000X0.350000X-0.450000X-0.350000X0*%
G04 APERTURE END LIST*
D10*
X157229838Y-102019676D02*
X157229838Y-101420000D01*
X121430000Y-101740000D02*
X122029676Y-101740000D01*
X121729838Y-102039838D02*
X121729838Y-101440162D01*
X121730000Y-95960000D02*
X121730000Y-95360324D01*
X156930162Y-95640000D02*
X157529838Y-95640000D01*
X121430162Y-95660162D02*
X122029838Y-95660162D01*
X156930000Y-101719838D02*
X157529676Y-101719838D01*
X157230000Y-95939838D02*
X157230000Y-95340162D01*
D11*
X123195714Y-88058571D02*
X124052857Y-88058571D01*
X123624285Y-89558571D02*
X123624285Y-88058571D01*
X124838571Y-88058571D02*
X125124285Y-88058571D01*
X125267142Y-88130000D01*
X125410000Y-88272857D01*
X125481428Y-88558571D01*
X125481428Y-89058571D01*
X125410000Y-89344285D01*
X125267142Y-89487142D01*
X125124285Y-89558571D01*
X124838571Y-89558571D01*
X124695714Y-89487142D01*
X124552857Y-89344285D01*
X124481428Y-89058571D01*
X124481428Y-88558571D01*
X124552857Y-88272857D01*
X124695714Y-88130000D01*
X124838571Y-88058571D01*
X126124285Y-89558571D02*
X126124285Y-88058571D01*
X126695714Y-88058571D01*
X126838571Y-88130000D01*
X126910000Y-88201428D01*
X126981428Y-88344285D01*
X126981428Y-88558571D01*
X126910000Y-88701428D01*
X126838571Y-88772857D01*
X126695714Y-88844285D01*
X126124285Y-88844285D01*
D12*
X139033816Y-113117380D02*
X138700483Y-112641190D01*
X138462387Y-113117380D02*
X138462387Y-112117380D01*
X138843340Y-112117380D01*
X138938578Y-112165000D01*
X138986197Y-112212619D01*
X139033816Y-112307857D01*
X139033816Y-112450714D01*
X138986197Y-112545952D01*
X138938578Y-112593571D01*
X138843340Y-112641190D01*
X138462387Y-112641190D01*
X139938578Y-113117380D02*
X139462387Y-113117380D01*
X139462387Y-112117380D01*
X140795721Y-113117380D02*
X140224292Y-113117380D01*
X140510006Y-113117380D02*
X140510006Y-112117380D01*
X140414768Y-112260238D01*
X140319530Y-112355476D01*
X140224292Y-112403095D01*
X130662380Y-100346666D02*
X130186190Y-100680000D01*
X130662380Y-100918095D02*
X129662380Y-100918095D01*
X129662380Y-100537142D01*
X129710000Y-100441904D01*
X129757619Y-100394285D01*
X129852857Y-100346666D01*
X129995714Y-100346666D01*
X130090952Y-100394285D01*
X130138571Y-100441904D01*
X130186190Y-100537142D01*
X130186190Y-100918095D01*
X130662380Y-99394285D02*
X130662380Y-99965714D01*
X130662380Y-99680000D02*
X129662380Y-99680000D01*
X129805238Y-99775238D01*
X129900476Y-99870476D01*
X129948095Y-99965714D01*
X126091904Y-103572380D02*
X126091904Y-102572380D01*
X126330000Y-102572380D01*
X126472857Y-102620000D01*
X126568095Y-102715238D01*
X126615714Y-102810476D01*
X126663333Y-103000952D01*
X126663333Y-103143809D01*
X126615714Y-103334285D01*
X126568095Y-103429523D01*
X126472857Y-103524761D01*
X126330000Y-103572380D01*
X126091904Y-103572380D01*
X127615714Y-103572380D02*
X127044285Y-103572380D01*
X127330000Y-103572380D02*
X127330000Y-102572380D01*
X127234761Y-102715238D01*
X127139523Y-102810476D01*
X127044285Y-102858095D01*
X139161666Y-94412380D02*
X139161666Y-95126666D01*
X139114047Y-95269523D01*
X139018809Y-95364761D01*
X138875952Y-95412380D01*
X138780714Y-95412380D01*
X139542619Y-94412380D02*
X140161666Y-94412380D01*
X139828333Y-94793333D01*
X139971190Y-94793333D01*
X140066428Y-94840952D01*
X140114047Y-94888571D01*
X140161666Y-94983809D01*
X140161666Y-95221904D01*
X140114047Y-95317142D01*
X140066428Y-95364761D01*
X139971190Y-95412380D01*
X139685476Y-95412380D01*
X139590238Y-95364761D01*
X139542619Y-95317142D01*
X160797543Y-109498161D02*
X161512419Y-109498161D01*
X161655394Y-109545819D01*
X161750711Y-109641136D01*
X161798370Y-109784111D01*
X161798370Y-109879428D01*
X160892859Y-109069235D02*
X160845201Y-109021576D01*
X160797543Y-108926259D01*
X160797543Y-108687967D01*
X160845201Y-108592650D01*
X160892859Y-108544992D01*
X160988176Y-108497334D01*
X161083493Y-108497334D01*
X161226468Y-108544992D01*
X161798370Y-109116893D01*
X161798370Y-108497334D01*
X130617543Y-109488161D02*
X131332419Y-109488161D01*
X131475394Y-109535819D01*
X131570711Y-109631136D01*
X131618370Y-109774111D01*
X131618370Y-109869428D01*
X131618370Y-108487334D02*
X131618370Y-109059235D01*
X131618370Y-108773284D02*
X130617543Y-108773284D01*
X130760518Y-108868601D01*
X130855835Y-108963918D01*
X130903493Y-109059235D01*
X149292380Y-94796666D02*
X148816190Y-95130000D01*
X149292380Y-95368095D02*
X148292380Y-95368095D01*
X148292380Y-94987142D01*
X148340000Y-94891904D01*
X148387619Y-94844285D01*
X148482857Y-94796666D01*
X148625714Y-94796666D01*
X148720952Y-94844285D01*
X148768571Y-94891904D01*
X148816190Y-94987142D01*
X148816190Y-95368095D01*
X148625714Y-93939523D02*
X149292380Y-93939523D01*
X148244761Y-94177619D02*
X148959047Y-94415714D01*
X148959047Y-93796666D01*
X151971904Y-97502380D02*
X151971904Y-96502380D01*
X152210000Y-96502380D01*
X152352857Y-96550000D01*
X152448095Y-96645238D01*
X152495714Y-96740476D01*
X152543333Y-96930952D01*
X152543333Y-97073809D01*
X152495714Y-97264285D01*
X152448095Y-97359523D01*
X152352857Y-97454761D01*
X152210000Y-97502380D01*
X151971904Y-97502380D01*
X153400476Y-96835714D02*
X153400476Y-97502380D01*
X153162380Y-96454761D02*
X152924285Y-97169047D01*
X153543333Y-97169047D01*
X149292380Y-100876666D02*
X148816190Y-101210000D01*
X149292380Y-101448095D02*
X148292380Y-101448095D01*
X148292380Y-101067142D01*
X148340000Y-100971904D01*
X148387619Y-100924285D01*
X148482857Y-100876666D01*
X148625714Y-100876666D01*
X148720952Y-100924285D01*
X148768571Y-100971904D01*
X148816190Y-101067142D01*
X148816190Y-101448095D01*
X148387619Y-100495714D02*
X148340000Y-100448095D01*
X148292380Y-100352857D01*
X148292380Y-100114761D01*
X148340000Y-100019523D01*
X148387619Y-99971904D01*
X148482857Y-99924285D01*
X148578095Y-99924285D01*
X148720952Y-99971904D01*
X149292380Y-100543333D01*
X149292380Y-99924285D01*
X130662380Y-94256666D02*
X130186190Y-94590000D01*
X130662380Y-94828095D02*
X129662380Y-94828095D01*
X129662380Y-94447142D01*
X129710000Y-94351904D01*
X129757619Y-94304285D01*
X129852857Y-94256666D01*
X129995714Y-94256666D01*
X130090952Y-94304285D01*
X130138571Y-94351904D01*
X130186190Y-94447142D01*
X130186190Y-94828095D01*
X129662380Y-93923333D02*
X129662380Y-93304285D01*
X130043333Y-93637619D01*
X130043333Y-93494761D01*
X130090952Y-93399523D01*
X130138571Y-93351904D01*
X130233809Y-93304285D01*
X130471904Y-93304285D01*
X130567142Y-93351904D01*
X130614761Y-93399523D01*
X130662380Y-93494761D01*
X130662380Y-93780476D01*
X130614761Y-93875714D01*
X130567142Y-93923333D01*
X126091904Y-97492380D02*
X126091904Y-96492380D01*
X126330000Y-96492380D01*
X126472857Y-96540000D01*
X126568095Y-96635238D01*
X126615714Y-96730476D01*
X126663333Y-96920952D01*
X126663333Y-97063809D01*
X126615714Y-97254285D01*
X126568095Y-97349523D01*
X126472857Y-97444761D01*
X126330000Y-97492380D01*
X126091904Y-97492380D01*
X126996666Y-96492380D02*
X127615714Y-96492380D01*
X127282380Y-96873333D01*
X127425238Y-96873333D01*
X127520476Y-96920952D01*
X127568095Y-96968571D01*
X127615714Y-97063809D01*
X127615714Y-97301904D01*
X127568095Y-97397142D01*
X127520476Y-97444761D01*
X127425238Y-97492380D01*
X127139523Y-97492380D01*
X127044285Y-97444761D01*
X126996666Y-97397142D01*
X151981904Y-103562380D02*
X151981904Y-102562380D01*
X152220000Y-102562380D01*
X152362857Y-102610000D01*
X152458095Y-102705238D01*
X152505714Y-102800476D01*
X152553333Y-102990952D01*
X152553333Y-103133809D01*
X152505714Y-103324285D01*
X152458095Y-103419523D01*
X152362857Y-103514761D01*
X152220000Y-103562380D01*
X151981904Y-103562380D01*
X152934285Y-102657619D02*
X152981904Y-102610000D01*
X153077142Y-102562380D01*
X153315238Y-102562380D01*
X153410476Y-102610000D01*
X153458095Y-102657619D01*
X153505714Y-102752857D01*
X153505714Y-102848095D01*
X153458095Y-102990952D01*
X152886666Y-103562380D01*
X153505714Y-103562380D01*
D13*
X129399755Y-107787255D02*
X149480245Y-107787255D01*
X149480245Y-107787255D02*
X149480245Y-117492745D01*
X149480245Y-117492745D02*
X129399755Y-117492745D01*
X129399755Y-117492745D02*
X129399755Y-107787255D01*
D14*
X130708323Y-110165000D02*
G75*
G03*
X130708323Y-110165000I-103078J0D01*
G01*
D13*
X129295000Y-99952936D02*
X129295000Y-100407064D01*
X127825000Y-99952936D02*
X127825000Y-100407064D01*
X124775000Y-97895000D02*
X121685000Y-97895000D01*
X123229538Y-103445000D02*
G75*
G03*
X124774830Y-97895000I462J2990000D01*
G01*
X121685170Y-97895000D02*
G75*
G03*
X123230462Y-103445000I1544830J-2560000D01*
G01*
X125730000Y-100455000D02*
G75*
G03*
X125730000Y-100455000I-2500000J0D01*
G01*
X131895000Y-83810000D02*
X147095000Y-83810000D01*
X147095000Y-83810000D02*
X147095000Y-101910000D01*
X147095000Y-101910000D02*
X131895000Y-101910000D01*
X131895000Y-101910000D02*
X131895000Y-83810000D01*
D14*
X133370000Y-100535000D02*
G75*
G03*
X133370000Y-100535000I-150000J0D01*
G01*
D10*
X150075000Y-105977500D02*
X151925000Y-105977500D01*
X150075000Y-120377500D02*
X150075000Y-105977500D01*
X159075000Y-120377500D02*
X150075000Y-120377500D01*
X159075000Y-105977500D02*
X159075000Y-107127500D01*
X159075000Y-112227500D02*
X159075000Y-120377500D01*
X157125000Y-105977500D02*
X159075000Y-105977500D01*
D15*
X154775000Y-104677500D02*
G75*
G03*
X154775000Y-104677500I-200000J0D01*
G01*
D10*
X128895000Y-112217500D02*
X128895000Y-120367500D01*
X128895000Y-120367500D02*
X119895000Y-120367500D01*
X119895000Y-120367500D02*
X119895000Y-105967500D01*
X126945000Y-105967500D02*
X128895000Y-105967500D01*
X119895000Y-105967500D02*
X121745000Y-105967500D01*
X128895000Y-105967500D02*
X128895000Y-107117500D01*
D15*
X124595000Y-104667500D02*
G75*
G03*
X124595000Y-104667500I-200000J0D01*
G01*
D13*
X151225000Y-94857064D02*
X151225000Y-94402936D01*
X149755000Y-94857064D02*
X149755000Y-94402936D01*
X157285000Y-91805000D02*
X154195000Y-91805000D01*
X154195170Y-91805000D02*
G75*
G03*
X155740462Y-97355000I1544830J-2560000D01*
G01*
X155739538Y-97355000D02*
G75*
G03*
X157284830Y-91805000I462J2990000D01*
G01*
X158240000Y-94365000D02*
G75*
G03*
X158240000Y-94365000I-2500000J0D01*
G01*
X149755000Y-100937064D02*
X149755000Y-100482936D01*
X151225000Y-100937064D02*
X151225000Y-100482936D01*
X127825000Y-93862936D02*
X127825000Y-94317064D01*
X129295000Y-93862936D02*
X129295000Y-94317064D01*
X124775000Y-91805000D02*
X121685000Y-91805000D01*
X121685170Y-91805000D02*
G75*
G03*
X123230462Y-97355000I1544830J-2560000D01*
G01*
X123229538Y-97355000D02*
G75*
G03*
X124774830Y-91805000I462J2990000D01*
G01*
X125730000Y-94365000D02*
G75*
G03*
X125730000Y-94365000I-2500000J0D01*
G01*
X157275000Y-97885000D02*
X154185000Y-97885000D01*
X155729538Y-103435000D02*
G75*
G03*
X157274830Y-97885000I462J2990000D01*
G01*
X154185170Y-97885000D02*
G75*
G03*
X155730462Y-103435000I1544830J-2560000D01*
G01*
X158230000Y-100445000D02*
G75*
G03*
X158230000Y-100445000I-2500000J0D01*
G01*
%LPC*%
D16*
X130580245Y-108865000D03*
D17*
X130580245Y-116465000D03*
X138205245Y-108865000D03*
X138205245Y-116465000D03*
X143305245Y-108865000D03*
X143305245Y-116465000D03*
X148355245Y-108865000D03*
X148380245Y-116465000D03*
D18*
X128560000Y-99180000D03*
X128560000Y-101180000D03*
D19*
X123230000Y-99185000D03*
D20*
X123230000Y-101725000D03*
D21*
X133820000Y-91685000D03*
X145120000Y-91685000D03*
D22*
X135070000Y-100535000D03*
D23*
X136340000Y-97995000D03*
X137610000Y-100535000D03*
X138880000Y-97995000D03*
X140150000Y-100535000D03*
X141420000Y-97995000D03*
X142690000Y-100535000D03*
X143960000Y-97995000D03*
D24*
X159275000Y-109677500D03*
D25*
X154575000Y-106677500D03*
D26*
X154575000Y-112677500D03*
D24*
X129095000Y-109667500D03*
D25*
X124395000Y-106667500D03*
D26*
X124395000Y-112667500D03*
D27*
X150490000Y-95630000D03*
X150490000Y-93630000D03*
D19*
X155740000Y-93095000D03*
D20*
X155740000Y-95635000D03*
D27*
X150490000Y-101710000D03*
X150490000Y-99710000D03*
D18*
X128560000Y-93090000D03*
X128560000Y-95090000D03*
D19*
X123230000Y-93095000D03*
D20*
X123230000Y-95635000D03*
D19*
X155730000Y-99175000D03*
D20*
X155730000Y-101715000D03*
M02*
